<?xml version="1.0" encoding="UTF-8" standalone="no"?>
<!-- Created with Inkscape (http://www.inkscape.org/) -->

<svg
   xmlns:dc="http://purl.org/dc/elements/1.1/"
   xmlns:cc="http://creativecommons.org/ns#"
   xmlns:rdf="http://www.w3.org/1999/02/22-rdf-syntax-ns#"
   xmlns:svg="http://www.w3.org/2000/svg"
   xmlns="http://www.w3.org/2000/svg"
   xmlns:sodipodi="http://sodipodi.sourceforge.net/DTD/sodipodi-0.dtd"
   xmlns:inkscape="http://www.inkscape.org/namespaces/inkscape"
   width="210mm"
   height="297mm"
   viewBox="0 0 744.09448819 1052.3622047"
   id="svg4934"
   version="1.1"
   inkscape:version="0.91 r13725"
   sodipodi:docname="logo_slimak_beta.svg">
  <defs
     id="defs4936" />
  <sodipodi:namedview
     id="base"
     pagecolor="#ffffff"
     bordercolor="#666666"
     borderopacity="1.0"
     inkscape:pageopacity="0.0"
     inkscape:pageshadow="2"
     inkscape:zoom="0.49497475"
     inkscape:cx="-927.96012"
     inkscape:cy="440.7927"
     inkscape:document-units="px"
     inkscape:current-layer="layer1"
     showgrid="false"
     inkscape:window-width="1855"
     inkscape:window-height="1056"
     inkscape:window-x="65"
     inkscape:window-y="24"
     inkscape:window-maximized="1" />
  <metadata
     id="metadata4939">
    <rdf:RDF>
      <cc:Work
         rdf:about="">
        <dc:format>image/svg+xml</dc:format>
        <dc:type
           rdf:resource="http://purl.org/dc/dcmitype/StillImage" />
        <dc:title></dc:title>
      </cc:Work>
    </rdf:RDF>
  </metadata>
  <g
     inkscape:label="Layer 1"
     inkscape:groupmode="layer"
     id="layer1">
    <path
       style="fill:#2affd5;fill-rule:evenodd;stroke:#000000;stroke-width:3;stroke-linecap:butt;stroke-linejoin:miter;stroke-miterlimit:4;stroke-dasharray:none;stroke-opacity:1"
       d="m -696.86079,972.22408 c -7.03854,-22.78235 -8.0206,-57.82266 -3.57137,-77.1428 2.1428,-9.2858 5.35717,-26.42863 22.50001,-62.50004 4.38987,-9.23701 17.49996,-29.64286 17.49996,-29.64286 7.80264,2.55859 11.51697,-5.47109 10.7143,-10 -1.0714,-5.3572 -6.42861,-9.28577 -10.00001,-8.57147 -7.23476,1.99545 -7.35792,5.23338 -6.78572,13.57147 0,0 -9.38435,13.56804 -15.35717,24.2857 -5.97282,10.71766 -10.06904,18.44802 -19.64284,40.35716 -9.5738,21.90913 -15.17109,41.28226 -23.57136,67.50004 l -10.3572,14.2857 23.5714,25 z"
       id="path4149-6-3-6-6"
       inkscape:connector-curvature="0"
       sodipodi:nodetypes="ccscccczzcccc" />
    <path
       style="fill:#00ffcc;fill-rule:evenodd;stroke:#000000;stroke-width:3;stroke-linecap:butt;stroke-linejoin:miter;stroke-miterlimit:4;stroke-dasharray:none;stroke-opacity:1"
       d="m -1083.2893,1181.6527 c 0,0 24.6429,-33.5715 41.7857,-45.7143 17.1429,-12.1429 69.28571,-44.6429 69.28571,-44.6429 0,0 39.62775,-15.5166 53.92857,-30.7143 14.30082,-15.1976 27.85713,-30.3571 33.57143,-37.4999 5.7143,-7.1429 27.8571,-30.7143 40,-39.28582 12.1429,-8.5714 26.4286,-20.7142 47.8571,-30 21.4286,-9.2857 37.1429,-13.5714 50.7143,-12.8571 13.5715,0.7143 29.2857,7.1429 40,19.2857 10.7143,12.1429 20,22.8572 22.8572,32.85722 2.8571,10 5,22.8571 4.2857,32.1428 -0.7143,9.2857 -2.8572,13.5715 0,22.1429 2.8571,8.5714 5.7143,16.4286 9.2857,22.8571 3.5714,6.4286 5.7143,12.8572 5.7143,12.8572 -1.27139,2.774 -6.42857,1.7857 -8.57147,-3.2143 -2.1428,-5 -12.14283,-19.6429 -12.14283,-19.6429 0,0 1.4286,3.5715 -9.2857,9.2857 -10.7143,5.7143 -16.70576,3.6563 -17.8572,11.4286 -1.42857,9.6429 -1.03546,10.8037 -0.71426,16.7857 0.32121,5.982 7.14286,18.9286 2.85716,18.9286 -4.2857,0 -12.1429,-10 -12.1429,-21.4286 l 0,-15.7143 c 0,0 -8.35565,4.8464 -11.78564,6.0714 -10.00002,3.5715 -23.92857,3.5715 -28.92857,4.2858 -5,0.7143 -12.85719,3.2143 -23.57149,11.0714 -10.7143,7.8572 -17.8571,17.1429 -25.7143,30.7143 -7.8571,13.5714 -15.7142,32.1429 -22.8571,55 -7.1429,22.8571 -21.4286,60.7142 -26.4286,72.8571 -5,12.1429 -17.8571,32.8571 -24.2857,38.5714 -6.4286,5.7143 -22.62213,16.5798 -36.4286,24.2857 -15.35714,8.5714 -35,15.7143 -54.2857,19.2858 -19.2857,3.5714 -57.85711,4.2857 -57.85711,4.2857 0,0 -43.5714,2.1428 -63.5714,0.7143 -20,-1.4286 -72.1429,1.4285 -89.2858,1.4285 -17.1428,0 -50,0 -71.4285,-2.1428 -21.4286,-2.1429 -51.4286,-2.1429 -65,-6.4286 -13.5715,-4.2857 -40.7143,-22.1429 -48.5715,-31.4286 -7.8571,-9.2857 -23.5714,-24.2857 -23.5714,-24.2857 0,0 -5,-0.7143 10,-3.5714 15,-2.8572 31.4285,-10 43.5714,-8.5714 9.9315,1.1684 23.5715,-7.1429 23.5715,-7.1429 0,0 22.1428,6.4286 31.4286,11.4286 9.2857,5 38.5713,-3.2144 53.5713,-0.3572 15,2.8571 20.3572,10e-5 33.9286,-2.8571 13.5714,-2.8571 26.0715,-15.3571 41.7858,-21.7857 15.7142,-6.4286 29.9999,-13.9286 35.7142,-21.7857 5.7143,-7.8572 14.2857,-13.9286 18.5714,-30.3571 4.2858,-16.4286 20.0001,-17.1429 20.0001,-17.1429 z"
       id="path4147-3-6-6-3"
       inkscape:connector-curvature="0"
       sodipodi:nodetypes="csczssssssssssccsszsscssssssssscssssscsscssssssc" />
    <path
       style="fill:#ffffff;fill-rule:evenodd;stroke:#000000;stroke-width:3;stroke-linecap:butt;stroke-linejoin:miter;stroke-miterlimit:4;stroke-dasharray:none;stroke-opacity:1"
       d="m -922.21789,1064.0098 c -4.3281,-36.6324 -14.81446,-73.58843 -40.34106,-100.36423 -16.5646,-18.1641 -37.85295,-31.321 -80.86395,-49.8366 -43.011,-18.5156 -109.7399,-19.70265 -168.4647,-0.74675 -66.9778,28.57128 -115.9979,93.20008 -135.9968,143.04278 -39.1622,98.5739 -18.7835,192.2009 72.7724,234.4924 29.9484,13.606 72.996,10.7421 106.8896,-1.6657 33.8936,-12.4078 66.3919,-34.5075 80.3788,-68.3454 3.8184,-12.5854 5.2795,-19.7643 8.0088,-38.6821 13.0992,-13.319 0,0 13.0992,-13.319 25.5249,-21.1783 54.035,-38.4261 80.05051,-59.0062 21.396,-15.3242 43.5095,-29.6332 64.4672,-45.5692 z"
       id="path4153-7-2-4-9"
       inkscape:connector-curvature="0"
       sodipodi:nodetypes="cczccczccccc" />
    <path
       style="fill:none;fill-rule:evenodd;stroke:#000000;stroke-width:3;stroke-linecap:butt;stroke-linejoin:miter;stroke-miterlimit:4;stroke-dasharray:none;stroke-opacity:1"
       d="m -1080.1266,1182.6015 c 1.9362,-32.1103 4.3243,-66.5838 -7.5687,-97.5663 -8.4378,21.5717 -40.7249,12.5373 -45.4016,-10.5672 -4.6767,-23.1045 19.6959,-36.4519 32.9167,-28.8446 -12.4285,-25.1857 -30.6008,-48.96432 -54.9349,-63.43442 -7.5602,-6.8338 -45.2055,-5.6644 -20.4951,-10.2436 27.7844,-7.6549 11.4688,-35.71098 -11.0801,-32.8773 -22.5489,2.83368 -35.4914,11.29105 -36.142,28.91934 -0.6506,17.62829 -29.0121,10.65447 -40.0557,24.66486 -11.0435,14.01042 -31.5204,23.63992 -38.5413,41.94632 17.5988,-1.9397 6.334,37.2898 -5.1479,26.7846 -11.4818,-10.5052 -10.3396,21.1035 -15.9568,31.4843 0.6964,8.8067 3.1336,27.3056 8.9438,35.3992 1.9874,0.068 2.1607,-5.7044 9.7835,-6.7434 12.2881,-1.675 13.4069,19.9334 0.6642,21.7962 14.8888,15.2805 31.0723,16.2049 43.9659,19.1669 25.0682,3.4972 50.2185,-9.0658 62.3217,-31.1736 16.6054,-21.2945 11.9142,-50.7644 3.3504,-74.4477 -6.1857,-20.0838 -29.5725,-34.1935 -50.4646,-30.9081 -20.3631,5.2307 -37.0475,22.099 -35.6552,44.3047 -0.237,26.6936 44.5497,6.5011 24.7488,-11.4905 -2.8391,0.5703 -5.4801,1.807 -8.0813,3.0305"
       id="path4155-5-0-9-4"
       inkscape:connector-curvature="0"
       sodipodi:nodetypes="cczccczzzczccscccccccc" />
    <path
       style="fill:none;fill-rule:evenodd;stroke:#000000;stroke-width:3;stroke-linecap:butt;stroke-linejoin:miter;stroke-miterlimit:4;stroke-dasharray:none;stroke-opacity:1"
       d="m -1130.6268,1271.9134 c -9.2404,-19.0131 -23.4357,-34.2965 -40.2403,-46.7038 0.4737,14.5246 -22.0175,27.1663 -39.4769,10.8275 -17.4594,-16.3388 -2.4561,-51.1006 21.0889,-40.3429 14.6202,7.3851 -7.5728,-19.6541 -12.5105,-24.9618 -12.8999,-12.449 -24.2473,-45.9385 -23.0579,-54.3194 28.9728,-1.7244 -8.7125,-43.2086 -11.3642,-14.7103 -5.1678,-8.7456 -10.5428,-17.4508 -17.6777,-24.7488"
       id="path4178-3-6-5-8"
       inkscape:connector-curvature="0"
       sodipodi:nodetypes="cczccccc" />
    <path
       style="fill:none;fill-rule:evenodd;stroke:#000000;stroke-width:3;stroke-linecap:butt;stroke-linejoin:miter;stroke-miterlimit:4;stroke-dasharray:none;stroke-opacity:1"
       d="m -1000.3022,935.20084 c -13.5502,0.45868 -33.3686,4.64494 -39.4819,7.55274 24.4097,-6.6898 48.71901,19.9667 41.99241,43.7917 -2.90801,24.34142 -31.82201,29.92102 -53.06261,16.33612 -21.2406,-13.58489 -3.484,-54.02989 -30.0274,-40.63302 -26.5434,13.39687 -47.0833,25.2934 -69.6276,39.48672 -8.0242,6.7894 -25.152,13.157 -5.3654,16.7247 27.8345,11.1544 -7.8797,49.8083 -20.1774,25.609 -5.4849,-9.9622 -3.4919,-26.3297 -10.5653,-16.7431 -7.0734,9.5866 -35.5751,17.0403 -33.1554,26.8367 23.3799,15.3337 -20.8329,31.3284 -12.6426,6.2108 5.7593,-10.8606 -15.3446,4.2778 -17.496,3.5354"
       id="path4180-5-1-0-1"
       inkscape:connector-curvature="0"
       sodipodi:nodetypes="ccczzccczccc" />
    <path
       style="fill:none;fill-rule:evenodd;stroke:#000000;stroke-width:3;stroke-linecap:butt;stroke-linejoin:miter;stroke-miterlimit:4;stroke-dasharray:none;stroke-opacity:1"
       d="m -1240.5242,928.19097 c -4.2185,7.08131 -13.9028,11.62566 -18.0295,28.3316 0,0 8.0632,-6.11926 10.8718,1.16647 3.5195,9.12999 -5.627,19.5466 -14.9378,15.51724 -2.8846,13.2881 1.5709,27.00202 0.1786,39.82142 12.2504,-13.48682 17.3274,12.8419 2.0089,9.9107 -1.8052,3.3576 -2.9339,7.6846 -0.3571,11.0714"
       id="path4182-6-5-4-2"
       inkscape:connector-curvature="0"
       sodipodi:nodetypes="ccscccc" />
    <path
       style="fill:none;fill-rule:evenodd;stroke:#000000;stroke-width:3;stroke-linecap:butt;stroke-linejoin:miter;stroke-miterlimit:4;stroke-dasharray:none;stroke-opacity:1"
       d="m -1334.0036,1245.4384 c 3.6288,-15.0108 7.7755,-22.1025 13.0803,-29.9553 -17.2824,-8.6872 -21.8718,-35.9657 -1.6517,-39.3304 20.2201,-3.3647 15.5232,29.5957 19.0067,6.2891 3.4835,-23.3066 17.3328,-27.0389 26.3504,-24.5034 11.849,-13.0647 14.8259,-38.5503 15.4911,-33.4821 22.862,15.2661 20.1048,-38.1008 -0.4911,-17.5893 -1.7282,-7.82 -0.5927,-16.6339 -3.9286,-23.9286"
       id="path4184-2-5-8-9"
       inkscape:connector-curvature="0"
       sodipodi:nodetypes="cczzcccc" />
    <path
       style="fill:none;fill-rule:evenodd;stroke:#000000;stroke-width:3;stroke-linecap:butt;stroke-linejoin:miter;stroke-miterlimit:4;stroke-dasharray:none;stroke-opacity:1"
       d="m -1362.9322,1104.367 c 27.1623,-16.5844 -2.3063,17.7639 20.7143,12.5 17.5458,-7.671 -5.0298,-25.6577 20.3571,-24.2857 -0.9317,10.8519 11.2278,3.6367 15.7162,-3.4439 0.343,-2.3874 -4.0537,-0.3622 -1.2533,-8.8399 2.4971,-7.5594 16.5304,-4.0648 11.9657,7.6409 1.4447,-8.5147 12.1236,-8.0264 18.5714,-9.6428"
       id="path4186-9-4-7-3"
       inkscape:connector-curvature="0"
       sodipodi:nodetypes="ccccscc" />
    <path
       style="fill:#00ffcc;fill-rule:evenodd;stroke:#000000;stroke-width:3;stroke-linecap:butt;stroke-linejoin:miter;stroke-miterlimit:4;stroke-dasharray:none;stroke-opacity:1"
       d="m -718.28929,977.22408 c 1.0714,-3.2143 -2.8572,-35.3571 -3.9286,-41.4286 -1.0714,-6.0714 -3.2143,-29.2857 -3.2143,-37.8571 0,-8.5714 1.4286,-27.8572 3.5714,-36.4286 2.1429,-8.5714 3.5715,-17.49997 9.2858,-34.6429 2.17239,-6.51718 9.28571,-20 9.28571,-20 6.50403,-1.82081 11.26047,-5.06906 11.42849,-11.07141 0,-4.6428 -3.9285,-9.64289 -6.7857,-10.35709 -2.8571,-0.7143 -9.28567,0.71423 -11.42857,4.28563 -2.1428,3.5715 -1.78573,11.78577 -1.78573,11.78577 l -7.8571,14.6428 c -7.22019,17.21749 -13.28941,34.6374 -16.0714,56.0715 -1.0715,8.5714 -3.5715,31.4286 -5,39.6429 -1.4286,8.2143 -7.5,31.7857 -10,36.0714 -2.5,4.2857 -11.07141,15.71429 -12.85721,22.85719 -1.7857,7.1428 -2.49999,9.28571 -0.71429,15.71421 1.7858,6.4286 7.1429,8.57143 12.8572,10.00003 18.42913,-0.16773 29.29026,-7.60005 33.2143,-19.28573 z"
       id="path4151-1-9-6-4"
       inkscape:connector-curvature="0"
       sodipodi:nodetypes="csscsccccccccssccc" />
  </g>
</svg>
