<?xml version="1.0" encoding="UTF-8"?>
<!DOCTYPE svg PUBLIC "-//W3C//DTD SVG 1.1//EN" "http://www.w3.org/Graphics/SVG/1.1/DTD/svg11.dtd">
<!-- Creator: CorelDRAW -->
<svg xmlns="http://www.w3.org/2000/svg" xml:space="preserve" width="210mm" height="297mm" style="shape-rendering:geometricPrecision; text-rendering:geometricPrecision; image-rendering:optimizeQuality; fill-rule:evenodd; clip-rule:evenodd"
viewBox="0 0 210 297"
 xmlns:xlink="http://www.w3.org/1999/xlink"
 xmlns:dc="http://purl.org/dc/elements/1.1/"
 xmlns:cc="http://creativecommons.org/ns#"
 xmlns:rdf="http://www.w3.org/1999/02/22-rdf-syntax-ns#"
 xmlns:svg="http://www.w3.org/2000/svg"
 xmlns:sodipodi="http://sodipodi.sourceforge.net/DTD/sodipodi-0.dtd"
 xmlns:inkscape="http://www.inkscape.org/namespaces/inkscape"
 version="1.1"
 inkscape:version="0.91 r13725"
 sodipodi:docname="slimak_for_t-shirt.svg">
 <defs>
  <style type="text/css">
   <![CDATA[
    .str0 {stroke:#666666;stroke-width:2;stroke-linecap:round;stroke-linejoin:round}
    .fil1 {fill:none}
    .fil0 {fill:white}
    .fil2 {fill:#333333;fill-rule:nonzero}
   ]]>
  </style>
 </defs>
 <g id="Слой_x0020_1">
  <metadata id="CorelCorpID_0Corel-Layer"/>
  <sodipodi:namedview id="base" pagecolor="#ffffff" bordercolor="#666666" borderopacity="1.0" inkscape:pageopacity="0.0" inkscape:pageshadow="2" inkscape:zoom="0.49497475" inkscape:cx="-128.7924" inkscape:cy="162.01098" inkscape:document-units="px" inkscape:current-layer="layer1" showgrid="false" inkscape:window-width="1855" inkscape:window-height="1056" inkscape:window-x="65" inkscape:window-y="24" inkscape:window-maximized="1"/>
  <g id="layer1" inkscape:label="Layer 1" inkscape:groupmode="layer">
   <path id="path4149-6-3-6-6" class="fil0 str0" d="M187.608 65.0643c-1.7687,-5.7248 -2.0155,-14.5298 -0.8974,-19.3846 0.5384,-2.3334 1.3461,-6.641 5.6538,-15.7052 1.1031,-2.321 4.3974,-7.4487 4.3974,-7.4487 1.9607,0.6429 2.894,-1.3748 2.6923,-2.5128 -0.2692,-1.3462 -1.6153,-2.3334 -2.5128,-2.1538 -1.8179,0.5014 -1.8489,1.3151 -1.7051,3.4102 0,0 -2.3582,3.4094 -3.859,6.1026 -1.5008,2.6931 -2.5302,4.6356 -4.9359,10.141 -2.4057,5.5054 -3.8122,10.3734 -5.923,16.9615l-2.6026 3.5898 5.9231 6.282 3.7692 0.718z" inkscape:connector-curvature="0" sodipodi:nodetypes="ccscccczzcccc"/>
   <path id="path4147-3-6-6-3" class="fil0 str0" d="M90.506 117.69c0,0 6.1923,-8.4359 10.5,-11.4872 4.3077,-3.0513 17.4102,-11.2179 17.4102,-11.2179 0,0 9.9577,-3.8991 13.5512,-7.718 3.5936,-3.8189 7,-7.6282 8.4359,-9.423 1.4359,-1.7949 7,-7.718 10.0512,-9.8718 3.0514,-2.1539 6.6411,-5.2051 12.0257,-7.5385 5.3846,-2.3333 9.3333,-3.4102 12.7435,-3.2307 3.4103,0.1794 7.359,1.7949 10.0513,4.8461 2.6923,3.0513 5.0256,5.7436 5.7436,8.2564 0.7179,2.5128 1.2564,5.7436 1.0769,8.0769 -0.1794,2.3333 -0.7179,3.4103 0,5.5641 0.718,2.1539 1.436,4.1282 2.3334,5.7436 0.8974,1.6154 1.4359,3.2308 1.4359,3.2308 -0.3195,0.697 -1.6154,0.4487 -2.1538,-0.8077 -0.5385,-1.2564 -3.0513,-4.9359 -3.0513,-4.9359 0,0 0.359,0.8974 -2.3333,2.3334 -2.6924,1.4359 -4.1979,0.9187 -4.4872,2.8718 -0.359,2.4231 -0.2602,2.7147 -0.1795,4.2179 0.0808,1.5032 1.7949,4.7564 0.718,4.7564 -1.0769,0 -3.0513,-2.5128 -3.0513,-5.3846l0 -3.9487c0,0 -2.0997,1.2177 -2.9615,1.5256 -2.5128,0.8974 -6.0128,0.8974 -7.2692,1.0769 -1.2564,0.1795 -3.2308,0.8077 -5.9231,2.7821 -2.6924,1.9743 -4.4872,4.3077 -6.4616,7.7179 -1.9744,3.4103 -3.9487,8.077 -5.7436,13.8206 -1.7948,5.7436 -5.3846,15.2564 -6.641,18.3076 -1.2564,3.0513 -4.4872,8.2564 -6.1026,9.6923 -1.6153,1.4359 -5.6845,4.1662 -9.1538,6.1025 -3.859,2.1539 -8.7948,3.9488 -13.641,4.8462 -4.8461,0.8974 -14.5384,1.077 -14.5384,1.077 0,0 -10.9487,0.5384 -15.9744,0.1795 -5.0256,-0.359 -18.1281,0.359 -22.4359,0.359 -4.3076,0 -12.5641,0 -17.9486,-0.5385 -5.3846,-0.5384 -12.9231,-0.5384 -16.3334,-1.6154 -3.4103,-1.0769 -10.2307,-5.5641 -12.2051,-7.8974 -1.9744,-2.3333 -5.9231,-6.1026 -5.9231,-6.1026 0,0 -1.2564,-0.1795 2.5129,-0.8974 3.7692,-0.7179 7.8974,-2.5128 10.9486,-2.1538 2.4957,0.2936 5.9231,-1.7949 5.9231,-1.7949 0,0 5.5641,1.6154 7.8974,2.8718 2.3334,1.2564 9.6923,-0.8078 13.4615,-0.0898 3.7692,0.718 5.1154,0 8.5256,-0.718 3.4103,-0.7179 6.5514,-3.8589 10.5,-5.4743 3.9487,-1.6154 7.5385,-3.5 8.9744,-5.4744 1.4359,-1.9744 3.5898,-3.5 4.6666,-7.6282 1.077,-4.1282 5.0257,-4.3077 5.0257,-4.3077l0.0001 0z" inkscape:connector-curvature="0" sodipodi:nodetypes="csczssssssssssccsszsscssssssssscssssscsscssssssc"/>
   <g id="g4177">
    <path id="path4153-7-2-4-9" class="fil0 str0" d="M130.98 88.1283c-1.1266,-11.6546 -5.8438,-23.7828 -16.0839,-30.3341 -9.9586,-6.3691 -21.3639,-11.165 -33.3669,-11.0242 -11.1875,0.0153 -23.0294,1.5862 -32.3107,8.3378 -18.8037,12.9263 -31.6621,35.6543 -29.7097,58.7975 1.1384,15.2001 12.6503,28.8001 27.3388,32.6584 13.5197,2.6028 28.4636,-1.9722 37.9873,-11.9676 4.4468,-4.4822 5.8301,-10.7913 6.5389,-16.8431 7.052,-7.5834 16.4404,-12.3988 24.4169,-18.8932 5.0594,-3.5823 10.2527,-6.9777 15.1893,-10.7316l0 0.0001z" inkscape:connector-curvature="0"/>
    <path id="path4155-5-0-9-4" class="fil1 str0" d="M91.3008 117.928c0.4936,-8.1778 1.0784,-16.7043 -1.9019,-24.5166 -3.0305,6.9264 -13.652,0.7304 -11.3663,-5.6439 0.2029,-4.2736 6.7487,-4.9504 7.9321,-4.8517 -3.4343,-6.5854 -8.3082,-13.0005 -15.2199,-16.1243 -2.1659,-0.4905 -8.3068,-1.1071 -2.8149,-1.9923 7.5605,-2.9425 -1.2533,-11.1157 -6.3347,-7.5111 -6.2886,0.1249 -4.6826,7.5658 -8.6785,9.6909 -5.9116,0.4217 -9.232,5.2528 -13.4497,8.6984 -2.0503,2.0773 -5.2969,4.8059 -1.7062,6.2776 1.2546,3.7257 -1.8421,7.1263 -5.008,5.2689 -1.7279,4.3975 -3.0212,9.2799 -1.4236,13.9262 0.5157,3.0598 1.5535,3.3891 3.765,1.4302 4.6054,-0.0762 1.1595,6.9665 0.8719,6.1557 4.6697,3.8137 11.487,5.1607 17.2642,3.51 8.2517,-2.7284 13.2536,-12.253 11.0682,-20.6248 -0.7942,-5.7294 -3.9982,-11.7773 -10.1907,-12.8995 -7.0912,-1.855 -15.0141,5.845 -12.4828,12.9646 3.8209,5.3801 11.5677,-6.1274 3.734,-4.113" inkscape:connector-curvature="0"/>
    <path id="path4178-3-6-5-8" class="fil1 str0" d="M78.611 140.371c-2.0348,-4.1982 -6.9117,-10.4293 -10.1552,-11.0587 -1.4393,6.2485 -11.475,4.4102 -11.7311,-1.6525 -1.1179,-5.1272 4.605,-8.2803 8.3873,-6.4509 -2.4036,-5.1877 -7.6622,-8.6613 -8.9853,-14.4964 -1.0366,-2.7606 -2.2226,-5.7546 1.3115,-6.5316 1.656,-3.253 -5.1819,-7.7882 -5.3527,-2.5808 -1.2961,-2.1939 -2.6507,-4.3872 -4.4421,-6.2189" inkscape:connector-curvature="0"/>
    <path id="path4180-5-1-0-1" class="fil1 str0" d="M111.359 55.761c-2.5223,-0.1187 -10.1306,1.5896 -8.7733,1.6786 7.5177,-0.841 12.682,9.2544 7.763,14.9252 -4.9731,4.9731 -15.2742,1.1805 -14.8237,-6.2548 0.2815,-7.3849 -6.9512,-2.313 -10.2867,-0.4778 -5.1949,3.0459 -10.835,5.7047 -15.2619,9.7764 3.3616,1.0901 7.3115,5.2904 2.8245,8.5222 -4.7493,4.212 -6.1561,-3.537 -7.6917,-5.634 -2.0121,3.6076 -12.2007,4.5975 -7.1871,9.4728 -0.4643,4.6112 -7.3535,2.5115 -4.8893,-1.5414 -1.6087,0.2198 -2.8464,1.4596 -4.3961,1.8747" inkscape:connector-curvature="0"/>
    <path id="path4182-6-5-4-2" class="fil1 str0" d="M50.9958 53.9995c-1.6551,2.119 -7.2503,7.7678 -2.1186,6.8741 2.6123,5.2224 -5.7799,3.2346 -3.6457,8.2216 0.8718,2.2893 -1.1368,7.4668 2.1758,5.2853 3.9885,3.6028 -4.0548,2.7016 -1.5038,6.2094" inkscape:connector-curvature="0"/>
    <path id="path4184-2-5-8-9" class="fil1 str0" d="M27.5061 133.718c0.1133,-3.9936 5.4935,-7.3764 0.6754,-9.8734 -4.9482,-5.0079 4.9897,-11.648 6.4163,-4.1057 0.217,-3.3899 2.9912,-9.1556 7.7101,-8.6575 2.9117,-2.2313 1.2747,-9.6751 5.9254,-7.1891 3.3588,-1.6002 0.606,-9.0018 -2.6887,-4.9948 -0.4401,-1.9858 -0.137,-4.118 -0.9872,-6.0128" inkscape:connector-curvature="0"/>
    <path id="path4186-9-4-7-3" class="fil1 str0" d="M20.2368 98.2694c3.346,-2.8049 3.1864,0.4005 3.1616,2.9852 5.3642,2.5493 2.7064,-9.3249 7.2152,-5.128 2.8231,1.7407 4.0921,-2.4842 3.9344,-4.4889 3.5539,-2.2785 1.919,4.7401 3.8593,0.9037 1.0792,-0.5349 2.3073,-0.5445 3.4577,-0.8232" inkscape:connector-curvature="0"/>
   </g>
   <path id="path4151-1-9-6-4" class="fil0 str0" d="M182.224 66.3207c0.2692,-0.8077 -0.718,-8.8846 -0.9872,-10.4102 -0.2692,-1.5257 -0.8077,-7.359 -0.8077,-9.5128 0,-2.1539 0.359,-7 0.8975,-9.1539 0.5384,-2.1538 0.8974,-4.3974 2.3333,-8.7051 0.5459,-1.6377 2.3334,-5.0256 2.3334,-5.0256 1.6343,-0.4576 2.8295,-1.2738 2.8718,-2.7821 0,-1.1666 -0.9872,-2.4231 -1.7052,-2.6025 -0.718,-0.1795 -2.3333,0.1794 -2.8718,1.0768 -0.5384,0.8975 -0.4487,2.9616 -0.4487,2.9616l-1.9744 3.6795c-1.8143,4.3264 -3.3394,8.7037 -4.0384,14.0897 -0.2693,2.1538 -0.8975,7.8974 -1.2564,9.9616 -0.359,2.0641 -1.8847,7.9871 -2.5129,9.064 -0.6282,1.077 -2.782,3.9488 -3.2307,5.7436 -0.4488,1.7948 -0.6282,2.3334 -0.1795,3.9487 0.4488,1.6154 1.7949,2.1538 3.2308,2.5128 4.6309,-0.0422 7.3601,-1.9098 8.3462,-4.8462l-0.0001 0.0001z" inkscape:connector-curvature="0" sodipodi:nodetypes="csscsccccccccssccc"/>
  </g>
  <path id="text6651" class="fil2" d="M21.96 183.109l0 7.9114 2.9157 0c3.7187,0 5.5748,-1.4875 5.5748,-4.4625 0,-1.7837 -0.5134,-3.0803 -1.5335,-3.8964 -1.0202,-0.8162 -2.205,-1.2243 -3.5476,-1.2243 -1.1255,0 -1.9219,0.0593 -2.4024,0.1712 -0.4805,0.1119 -0.7701,0.2698 -0.8622,0.4673 -0.0988,0.1909 -0.1448,0.5397 -0.1448,1.0333zm0 9.3396l0 9.129c0,1.7442 1.0926,2.6196 3.2777,2.6327 2.7578,0 4.6336,-0.4607 5.6275,-1.3887 0.9872,-0.9281 1.4809,-2.2115 1.4809,-3.8504 0,-1.9087 -0.6385,-3.4752 -1.9153,-4.6928 -1.2769,-1.2177 -3.1988,-1.8298 -5.7525,-1.8298l-2.7183 0zm-1.7113 -12.3606c0.5726,0 1.4283,-0.0132 2.5603,-0.0395 1.1321,-0.0263 1.9219,-0.0395 2.3695,-0.0395 5.6011,0 8.3984,2.0272 8.3984,6.075 0,1.0202 -0.3554,1.9943 -1.0597,2.9289 -0.7108,0.9412 -1.5862,1.6718 -2.6196,2.1918l0 0.0789c1.764,0.5266 3.1791,1.3691 4.2453,2.5275 1.0597,1.1584 1.5928,2.6261 1.5928,4.4164 0,0.928 -0.1514,1.81 -0.4607,2.6327 -0.3094,0.8227 -0.803,1.6125 -1.4941,2.3563 -0.6845,0.7437 -1.6915,1.3361 -3.0145,1.7705 -1.3229,0.4344 -2.896,0.6516 -4.7257,0.6516 -1.3098,0 -2.4879,-0.0132 -3.541,-0.0395 -1.0531,-0.0263 -1.7903,-0.0395 -2.2181,-0.0395 -0.8425,0 -2.5472,0.0263 -5.1075,0.079 -0.125,-0.1119 -0.1909,-0.3423 -0.1909,-0.6911 0,-0.3488 0.0659,-0.5924 0.1909,-0.7372 1.4612,-0.0526 2.3958,-0.2698 2.7973,-0.6516 0.4015,-0.3817 0.5989,-1.3558 0.5989,-2.9223l0 -15.6845c0,-1.5664 -0.1974,-2.5405 -0.5989,-2.9157 -0.4015,-0.3752 -1.3361,-0.5858 -2.7973,-0.6384 -0.125,-0.1054 -0.1909,-0.3357 -0.1909,-0.6714 0,-0.3422 0.0659,-0.5792 0.1909,-0.7174 2.6262,0.0526 4.3177,0.079 5.0746,0.079z"/>
  <path id="text66511" class="fil2" d="M45.3057 188.611l0 13.7429c0,0.5726 0.1185,0.9938 0.3488,1.2571 0.2304,0.2567 0.6385,0.4278 1.2177,0.5068l0.6976 0.0921c0.2107,0.0264 0.3225,0.1448 0.3357,0.3423l0 1.0004 -0.0921 0.0856c-1.7705,-0.0593 -3.1527,-0.0856 -4.1532,-0.0856l-3.9688 0.0856 -0.0724 -0.0856 0 -1.0004c0,-0.1975 0.1119,-0.3159 0.3291,-0.3423l0.7503 -0.0921c0.6319,-0.079 1.0399,-0.2435 1.2177,-0.5068 0.1777,-0.2567 0.2632,-0.6714 0.2632,-1.2374l0 -10.6296c0,-0.5727 -0.1184,-0.9807 -0.3488,-1.2243 -0.2304,-0.2435 -0.6319,-0.408 -1.2176,-0.4804l-0.6911 -0.079c-0.1909,-0.0263 -0.2896,-0.1382 -0.3028,-0.3357l0 -1.007 0.079 -0.0856c1.7837,0.0527 3.1395,0.079 4.061,0.079l1.4611 -0.079 0.0856 0.079zm-3.6595 -6.7134c0,-0.4739 0.2106,-0.9083 0.6253,-1.3032 0.4146,-0.3884 0.849,-0.5858 1.2966,-0.5858 0.5331,0 1.0004,0.2172 1.4019,0.6582 0.4015,0.4344 0.6055,0.8951 0.6055,1.3887 0,0.4476 -0.2237,0.882 -0.6647,1.2901 -0.4476,0.4146 -0.9478,0.6187 -1.5073,0.6187 -0.4475,0 -0.849,-0.2172 -1.211,-0.6582 -0.362,-0.4344 -0.5463,-0.9017 -0.5463,-1.4085z"/>
  <path id="text665112" class="fil2" d="M50.2487 205.553l0 -1.0004c0,-0.1711 0.1053,-0.283 0.3093,-0.3423l0.7898 -0.0921c0.7043,-0.079 1.1782,-0.2238 1.4151,-0.4476 0.237,-0.2238 0.3554,-0.6187 0.3554,-1.1847l0 -10.7547c0,-0.5463 -0.1316,-0.9544 -0.3949,-1.2242 -0.2633,-0.2765 -0.724,-0.4344 -1.3756,-0.4805l-0.7898 -0.0658c-0.204,-0.0592 -0.3093,-0.1711 -0.3093,-0.3357l0 -1.007 0.0789 -0.0856c1.889,0.0593 3.3173,0.0856 4.2914,0.0856l3.9557 -0.0856 0.0724 0.0856 0 0.9017c0,0.283 -0.1185,0.4278 -0.362,0.441 -0.7043,0.0724 -1.2243,0.2172 -1.5468,0.4212 -0.3291,0.2106 -0.4936,0.6319 -0.4936,1.2703l0 4.2255c1.3098,0 2.33,-0.3093 3.054,-0.9214 0.7305,-0.6121 1.3295,-1.5138 1.8034,-2.7117 1.0794,-2.6525 2.4484,-3.982 4.107,-3.982 1.4283,0 2.1391,0.5923 2.126,1.7705 0,0.4015 -0.158,0.7503 -0.4739,1.0531 -0.316,0.3027 -0.6845,0.4541 -1.0992,0.4541 -0.4212,0 -0.803,-0.1184 -1.1518,-0.3488 -0.2896,-0.1777 -0.5924,-0.2764 -0.9017,-0.2896 -0.2304,0 -0.5134,0.204 -0.8491,0.6121 -0.3357,0.4081 -0.6187,0.9017 -0.849,1.4743 -0.6845,1.8232 -1.7245,2.9421 -3.1264,3.3436l0 0.158c2.2905,0 3.8306,0.928 4.627,2.7841 1.4809,3.2053 2.7644,4.8903 3.857,5.0614l0.3685 0.0263c0.2962,0 0.4344,0.1316 0.4279,0.3883l0 0.803 -0.1185 0.0856 -2.9882 -0.0395c-1.5796,-0.0263 -2.9157,-1.5467 -3.9951,-4.5678 -0.4476,-1.211 -1.0005,-2.1128 -1.6586,-2.7117 -0.6516,-0.5989 -1.7047,-0.9412 -3.1593,-1.0136l0 5.2589c0,0.9083 0.724,1.4546 2.172,1.6454 0.204,0.0593 0.3093,0.1712 0.3093,0.3423l0 1.0004 -0.0789 0.0856c-1.606,-0.0593 -2.9487,-0.0856 -4.0281,-0.0856l-4.2914 0.0856 -0.0789 -0.0856z"/>
  <path id="text6651123" class="fil2" d="M76.4311 188.611l0 13.7429c0,0.5726 0.1185,0.9938 0.3488,1.2571 0.2304,0.2567 0.6385,0.4278 1.2177,0.5068l0.6976 0.0921c0.2107,0.0264 0.3225,0.1448 0.3357,0.3423l0 1.0004 -0.0921 0.0856c-1.7705,-0.0593 -3.1527,-0.0856 -4.1532,-0.0856l-3.9688 0.0856 -0.0724 -0.0856 0 -1.0004c0,-0.1975 0.1119,-0.3159 0.3291,-0.3423l0.7503 -0.0921c0.6319,-0.079 1.0399,-0.2435 1.2177,-0.5068 0.1777,-0.2567 0.2632,-0.6714 0.2632,-1.2374l0 -10.6296c0,-0.5727 -0.1184,-0.9807 -0.3488,-1.2243 -0.2304,-0.2435 -0.6319,-0.408 -1.2176,-0.4804l-0.6911 -0.079c-0.1909,-0.0263 -0.2896,-0.1382 -0.3028,-0.3357l0 -1.007 0.079 -0.0856c1.7837,0.0527 3.1395,0.079 4.061,0.079l1.4611 -0.079 0.0856 0.079zm-3.6595 -6.7134c0,-0.4739 0.2106,-0.9083 0.6253,-1.3032 0.4146,-0.3884 0.849,-0.5858 1.2966,-0.5858 0.5331,0 1.0004,0.2172 1.4019,0.6582 0.4015,0.4344 0.6055,0.8951 0.6055,1.3887 0,0.4476 -0.2237,0.882 -0.6647,1.2901 -0.4476,0.4146 -0.9478,0.6187 -1.5073,0.6187 -0.4475,0 -0.849,-0.2172 -1.211,-0.6582 -0.362,-0.4344 -0.5463,-0.9017 -0.5463,-1.4085z"/>
  <path id="text66511234" class="fil2" d="M84.4346 191.836c0,-0.803 -0.0921,-1.3098 -0.2699,-1.5204 -0.1777,-0.2106 -0.6516,-0.3225 -1.4282,-0.3357l-1.2506 -0.0197c-0.125,0 -0.1908,-0.0724 -0.1908,-0.2106l0 -1.1321 0.079 -0.0856 4.5677 0.079 11.5314 0 4.7784 -0.079 0.0395 0.0856 0 1.0926c0,0.1645 -0.079,0.2501 -0.2304,0.2501l-1.2571 0.0197c-0.7701,0.0132 -1.244,0.1185 -1.4151,0.316 -0.1711,0.1974 -0.2567,0.6976 -0.2567,1.5006l0 10.4849c0,0.7503 0.0987,1.2373 0.2962,1.4611 0.1974,0.2238 0.6582,0.3423 1.3756,0.3686l1.2571 0.1053c0.1514,0 0.2304,0.0856 0.2304,0.2567l0 1.0794 -0.0395 0.0856c-1.889,-0.0593 -3.4423,-0.0856 -4.6665,-0.0856l-4.5678 0.0856 0.0066 -0.0856 0 -1.1321c0,-0.1382 0.0658,-0.2106 0.1908,-0.2106l1.119 -0.0987c0.724,-0.0461 1.1781,-0.1909 1.3756,-0.4278 0.1974,-0.2435 0.2961,-0.7109 0.2961,-1.4151l0 -10.6889c0,-0.6516 -0.1513,-1.0728 -0.4541,-1.2637 -0.3028,-0.1843 -0.7174,-0.2764 -1.244,-0.2764l-5.0482 0c-0.5266,0 -0.9412,0.0987 -1.244,0.2962 -0.3028,0.204 -0.4541,0.6121 -0.4541,1.2439l0 10.6889c0,0.7569 0.0987,1.244 0.2961,1.4677 0.2041,0.2238 0.6516,0.3489 1.3559,0.3752l1.1584 0.1053c0.1251,0 0.1909,0.0856 0.1909,0.2567l0 1.0794 -0.0329 0.0856c-1.8364,-0.0593 -3.3568,-0.0856 -4.5547,-0.0856l-4.6467 0.0856 -0.0922 -0.0856 0 -1.1321c0,-0.1382 0.079,-0.2106 0.2501,-0.2106l1.2506 -0.0987c0.7372,-0.0197 1.1979,-0.158 1.4019,-0.4081 0.1975,-0.2501 0.2962,-0.724 0.2962,-1.4216l0 -10.4454z"/>
  <path id="text665112345" class="fil2" d="M108.439 194.337l7.1412 -0.1119c0.4015,0 0.5924,-0.1711 0.5792,-0.52 0,-1.4414 -0.3225,-2.4616 -0.9609,-3.0671 -0.645,-0.6055 -1.4151,-0.9083 -2.3102,-0.9083 -0.3489,0 -0.6911,0.0461 -1.0268,0.1317 -0.3291,0.0855 -0.7437,0.2632 -1.2308,0.5463 -0.4871,0.2764 -0.928,0.7503 -1.3295,1.4282 -0.3949,0.6845 -0.6845,1.5138 -0.8622,2.5011zm10.34 7.5625c0.4476,0.0263 0.724,0.2304 0.8293,0.6121 -1.7573,2.2905 -4.0017,3.4357 -6.72,3.4357 -2.6328,0 -4.6665,-0.8424 -6.0882,-2.5274 -1.244,-1.4282 -1.8693,-3.3765 -1.8693,-5.8446 0,-2.7842 0.8425,-5.0286 2.5275,-6.7267 1.6849,-1.6981 3.4949,-2.5471 5.43,-2.5471 4.4427,0 6.6608,2.2773 6.6608,6.8319 0,0.4739 -0.2436,0.7108 -0.7306,0.7108l-10.498 -0.0789c0,2.2114 0.4146,4.0149 1.2505,5.4168 1.1584,1.889 2.5933,2.8368 4.3177,2.8368 1.0992,0 2.0075,-0.158 2.7051,-0.4739 0.6977,-0.316 1.4283,-0.8623 2.1852,-1.6455z"/>
  <path id="text6651123456" class="fil2" d="M122.188 210.614l0.2501 -5.2325c0.0263,-0.5397 0.4212,-0.8491 1.1781,-0.9478 1.4744,-0.1448 2.3037,-0.6582 2.488,-1.5401 1.0267,-4.4296 1.5401,-8.3655 1.5401,-11.821 0,-0.6582 -0.566,-1.0202 -1.6981,-1.0926l-1.1518 -0.0197c-0.2041,0 -0.3094,-0.0724 -0.3094,-0.2106l0 -1.1321 0.1514 -0.0856c2.1852,0.0527 3.5147,0.079 3.9952,0.079l8.0166 0c0,0 1.4875,-0.0263 4.4559,-0.079l0.0395 0.0856 0 0.8688c0,0.1975 -0.0921,0.3028 -0.2698,0.3225l-0.7504 0.0658c-0.7569,0.0658 -1.2703,0.2238 -1.5335,0.4739 -0.2633,0.2501 -0.3949,0.7043 -0.3949,1.3559l0 10.939c0,0.4475 0.1053,0.8095 0.3093,1.086 0.204,0.2764 0.4081,0.4475 0.6055,0.5133 0.1975,0.0659 0.4608,0.1251 0.7833,0.1909 0.7042,0.0987 1.0596,0.4015 1.0596,0.9083l0.2304 5.272 -1.0597 0c-0.1053,-0.5068 -0.2567,-1.0004 -0.4541,-1.4875 -0.1975,-0.487 -0.4871,-1.0267 -0.8688,-1.6191 -0.3752,-0.5923 -0.8886,-1.0662 -1.5402,-1.4151 -0.6516,-0.3554 -1.3821,-0.5331 -2.1917,-0.5331l-6.8253 0c-2.5077,0 -4.1663,1.6981 -4.9759,5.0877l-1.0794 -0.0329zm5.3378 -6.9504c0,0.3225 0.2633,0.4805 0.7964,0.4673l5.0878 0c0.7306,0 1.1913,-0.1382 1.3822,-0.4212 0.1843,-0.2764 0.2764,-0.7898 0.2764,-1.5336l0 -10.1623c0,-0.7701 -0.0921,-1.29 -0.2764,-1.5665 -0.1909,-0.2698 -0.6516,-0.408 -1.3822,-0.408l-3.0474 0c-0.2962,0 -0.5397,0.079 -0.7372,0.2435 -0.1908,0.1645 -0.3093,0.3159 -0.362,0.4607 -0.0526,0.1448 -0.0789,0.2567 -0.0789,0.3291 -0.1778,2.6722 -0.4081,5.0022 -0.6911,6.9899 -0.2831,1.9877 -0.5134,3.3962 -0.6977,4.2321 -0.1777,0.8359 -0.2699,1.2901 -0.2699,1.369z"/>
  <path id="text66511234567" class="fil2" d="M166.78 193.482l0 7.1873c0,1.5533 0.158,2.5077 0.4739,2.8697 0.3094,0.3554 1.0992,0.5858 2.3563,0.6713 0.1251,0.1448 0.1909,0.3884 0.1909,0.7372 0,0.3488 -0.0658,0.5792 -0.1909,0.6911 -2.2641,-0.0593 -3.7187,-0.0856 -4.3769,-0.0856 -0.7306,0 -2.2115,0.0263 -4.4361,0.0856 -0.0987,-0.1119 -0.1448,-0.3423 -0.1448,-0.6911 0,-0.3488 0.0526,-0.5924 0.1514,-0.7372 1.2571,-0.0987 2.0469,-0.3291 2.3694,-0.6845 0.3225,-0.3488 0.4805,-1.3032 0.4805,-2.8565l0 -7.1873c0,-1.5533 -0.158,-2.5077 -0.4739,-2.8697 -0.3094,-0.3554 -1.1058,-0.5726 -2.376,-0.6516 -0.0988,-0.1119 -0.1514,-0.3423 -0.1514,-0.6845 0,-0.3423 0.0461,-0.5924 0.1448,-0.7438 2.2641,0.0593 3.7319,0.0856 4.4032,0.0856 0.7306,0 2.1983,-0.0263 4.4098,-0.0856 0.1251,0.1383 0.1909,0.3818 0.1909,0.7372 0,0.3488 -0.0658,0.5792 -0.1909,0.6911 -1.2571,0.0987 -2.0469,0.3225 -2.3563,0.6713 -0.3159,0.3489 -0.4739,1.2967 -0.4739,2.85zm-10.3597 7.0359c0,-2.5406 -1.2901,-3.8108 -3.8701,-3.8108l-2.7973 0 0 5.7393c0,0.6713 0.1909,1.1321 0.566,1.3822 0.3818,0.2567 1.0597,0.3817 2.0338,0.3817 1.2637,0 2.251,-0.2501 2.9816,-0.7569 0.724,-0.5068 1.086,-1.4875 1.086,-2.9355zm-9.7938 1.8561l0 -10.6296c0,-0.5727 -0.1184,-0.9807 -0.3554,-1.2243 -0.2369,-0.2501 -0.724,-0.408 -1.4546,-0.487l-0.7898 -0.0724c-0.204,-0.0592 -0.3093,-0.1909 -0.3093,-0.4015l0 -0.9412 0.0789 -0.0856c1.889,0.0593 3.3304,0.0856 4.3375,0.0856l4.4493 -0.0856 0.079 0.0856 0 0.9412c0,0.2567 -0.1185,0.3883 -0.3489,0.4015l-0.7898 0.0724c-0.6779,0.0526 -1.1452,0.2106 -1.3953,0.4673 -0.2502,0.2567 -0.3752,0.6713 -0.3752,1.2374l0 3.7187 2.3694 0c5.1273,0 7.6876,1.5533 7.6876,4.6599 0,1.6784 -0.6713,3.0211 -2.014,4.0215 -1.3427,1.0005 -3.1659,1.5007 -5.4827,1.5007 -0.5529,0 -1.2505,-0.0132 -2.0864,-0.0395 -0.8425,-0.0263 -1.5402,-0.0395 -2.093,-0.0395 -1.1189,0 -2.5669,0.0263 -4.3375,0.079l-0.0789 -0.0856 0 -1.0004c0,-0.1711 0.1053,-0.283 0.3093,-0.3423l0.7898 -0.0921c0.7306,-0.079 1.2177,-0.237 1.4546,-0.4871 0.237,-0.2435 0.3554,-0.6647 0.3554,-1.2571z"/>
  <path id="text665112345678" class="fil2" d="M177.337 185.801c0,3.7121 1.9087,5.5682 5.7328,5.5682l3.0869 0 0 -8.4774c0,-0.6582 -0.1778,-1.0596 -0.5332,-1.2044 -0.3488,-0.1383 -1.3756,-0.2107 -3.0737,-0.2107 -3.4752,0 -5.2128,1.4415 -5.2128,4.3243zm8.8591 6.9965c-2.0337,-0.0264 -3.4422,0.2961 -4.2189,0.9609 -0.7767,0.6648 -1.5994,2.093 -2.4616,4.2782 -0.6779,1.6915 -1.2374,3.0013 -1.6784,3.9359 -0.4409,0.9412 -1.0136,1.7771 -1.7178,2.5208 -0.7043,0.7372 -1.4809,1.1058 -2.33,1.1058l-2.6195 0.0395 -0.0395 -0.079 0 -0.8491c0,-0.2303 0.0987,-0.3488 0.2896,-0.3488l0.3488 -0.0263c1.4743,-0.1843 3.0869,-2.692 4.8311,-7.5165 0.6976,-1.8692 1.7968,-3.2448 3.304,-4.1268l0 -0.1118c-1.5204,-0.2304 -2.896,-0.8886 -4.1202,-1.968 -1.2242,-1.086 -1.8363,-2.5472 -1.8363,-4.3835 0,-1.6784 0.6713,-3.1264 2.0206,-4.3506 1.3493,-1.2176 3.6397,-1.8297 6.8714,-1.8297 0.4739,0 1.323,0.0066 2.5406,0.0197 1.2242,0.0132 2.0601,0.0198 2.5077,0.0198 0.7635,0 2.455,-0.0264 5.0943,-0.079 0.125,0.1316 0.1909,0.362 0.1909,0.6845 0,0.3291 -0.0659,0.5463 -0.1909,0.6648 -1.4809,0.0526 -2.4221,0.2698 -2.8302,0.645 -0.4015,0.3751 -0.6055,1.3493 -0.6055,2.9157l0 15.7108c0,1.5731 0.204,2.5472 0.6055,2.9223 0.4081,0.3752 1.3493,0.5924 2.8302,0.6582 0.125,0.1448 0.1909,0.3884 0.1909,0.7372 0,0.3488 -0.0659,0.5792 -0.1909,0.6911 -2.5867,-0.0593 -4.2979,-0.0856 -5.1272,-0.0856 -1.1584,0 -3.054,0.0263 -5.6933,0.0856 -0.1251,-0.1119 -0.1909,-0.3423 -0.1909,-0.6911 0,-0.3488 0.0658,-0.5924 0.1909,-0.7372 1.6849,-0.079 2.7775,-0.3027 3.2843,-0.6845 0.5002,-0.3817 0.7503,-1.3427 0.7503,-2.8762l0 -7.8521z"/>
  <path id="text5115" class="fil2" d="M20.2283 229.774c-0.3896,0 -0.7636,-0.0312 -1.126,-0.0974 -0.3584,-0.0624 -0.7364,-0.1909 -1.126,-0.3819 -0.3935,-0.1909 -0.7325,-0.4324 -1.0208,-0.7247 -0.2883,-0.2922 -0.526,-0.6896 -0.7091,-1.1883 -0.1832,-0.4987 -0.2728,-1.0676 -0.2728,-1.7144 0,-0.4948 0.0546,-1.0403 0.1598,-1.6325l1.5429 -7.8549c0.0195,-0.1208 0.0312,-0.2221 0.0312,-0.3078 0,-0.2338 -0.0819,-0.4091 -0.2455,-0.5182 -0.1636,-0.1091 -0.4325,-0.1792 -0.8143,-0.2104l-0.5845 -0.0468c-0.1207,0 -0.1675,-0.0623 -0.1363,-0.1831l0.0701 -0.4442 0.0662 -0.0467c1.3871,0.0312 2.3222,0.0467 2.8053,0.0467 0.5144,0 1.4689,-0.0155 2.8716,-0.0467l0.0429 0.0467 -0.0897 0.4442c-0.0311,0.1208 -0.1013,0.1831 -0.2181,0.1831l-0.5806 0.0468c-0.4636,0.0273 -0.8026,0.1286 -1.0169,0.2922 -0.2143,0.1676 -0.3585,0.413 -0.4325,0.7403l-1.352 7.0873c-0.0078,0.0273 -0.0156,0.0702 -0.0234,0.1208 -0.0623,0.3234 -0.1091,0.5728 -0.1403,0.7481 -0.035,0.1753 -0.0623,0.3974 -0.0857,0.6663 -0.0195,0.2727 -0.0311,0.5182 -0.0311,0.7402 0,0.4091 0.0506,0.791 0.148,1.1416 0.0974,0.3507 0.2611,0.6741 0.4909,0.9702 0.6235,0.7754 1.4339,1.1689 2.4313,1.1767 0.7325,0 1.3832,-0.1208 1.9637,-0.3663 0.5767,-0.2415 1.0403,-0.5376 1.391,-0.8883 0.3507,-0.3507 0.6624,-0.8026 0.9351,-1.3598 0.2766,-0.5533 0.4754,-1.0598 0.5961,-1.5157 0.1208,-0.4558 0.2455,-0.9974 0.378,-1.6208l1.3325 -6.8496c0.0234,-0.1208 0.0351,-0.2299 0.0351,-0.3312 0,-0.2416 -0.0819,-0.4208 -0.2455,-0.5377 -0.1636,-0.113 -0.4286,-0.1831 -0.7909,-0.2143l-0.6195 -0.0468c-0.1208,0 -0.1637,-0.0623 -0.1364,-0.1831l0.0935 -0.4442 0.0429 -0.0467c1.3948,0.0312 2.2091,0.0467 2.439,0.0467 0.2494,0 1.0715,-0.0155 2.4741,-0.0467l0.0429 0.0467 -0.0896 0.4442c-0.0312,0.1208 -0.1013,0.1831 -0.2065,0.1831l-0.5806 0.0468c-0.4675,0.0273 -0.8065,0.1325 -1.0286,0.3039 -0.2221,0.1753 -0.3623,0.4325 -0.4208,0.7754l-1.2585 6.4288c-0.4324,2.3066 -1.1688,4.0677 -2.213,5.2911 -1.0403,1.2196 -2.6378,1.8313 -4.7886,1.8313z"/>
  <path id="text51151" class="fil2" d="M31.9561 229.774c-0.7792,-0.0468 -1.4182,-0.2455 -1.9247,-0.6039 -0.5066,-0.3585 -0.7598,-0.7637 -0.7598,-1.2118 0,-0.1909 0.0701,-0.374 0.2104,-0.5532 0.1402,-0.1793 0.3623,-0.2689 0.6584,-0.2689 0.3117,0 0.5611,0.1247 0.7481,0.3779 0.187,0.2494 0.3,0.5416 0.3468,0.8689 0.0312,0.2494 0.1247,0.4169 0.2805,0.5026 0.1559,0.0819 0.3974,0.1247 0.7247,0.1247 0.5806,0 1.0559,-0.1364 1.4261,-0.413 0.374,-0.2727 0.561,-0.713 0.561,-1.3247 0,-0.7598 -0.4753,-1.4611 -1.426,-2.1001 -1.3559,-0.9195 -2.0339,-1.9092 -2.0339,-2.9651 0,-0.7636 0.304,-1.4377 0.9118,-2.0338 0.6117,-0.5923 1.3987,-0.8884 2.365,-0.8884 0.7013,0 1.3169,0.2026 1.8546,0.604 0.5338,0.4052 0.8027,0.826 0.8027,1.2662 0,0.5338 -0.2806,0.7949 -0.8455,0.7871 -0.2806,0 -0.5221,-0.1208 -0.7247,-0.3702 -0.1987,-0.2454 -0.3156,-0.526 -0.3468,-0.8377 -0.0623,-0.448 -0.4091,-0.674 -1.0481,-0.674 -0.4637,0 -0.826,0.1636 -1.0832,0.4909 -0.261,0.3273 -0.3896,0.713 -0.3896,1.165 0,0.5611 0.3117,1.052 0.9351,1.4728 1.0286,0.6818 1.7494,1.3052 2.1624,1.8702 0.4169,0.5611 0.6234,1.1377 0.6234,1.7222 0,0.8922 -0.3311,1.613 -0.9935,2.1663 -0.6624,0.5493 -1.5546,0.826 -2.6845,0.826l-0.3507 0z"/>
  <path id="text511512" class="fil2" d="M44.4319 220.894c0,-0.339 -0.0857,-0.5728 -0.2571,-0.7013 -0.1714,-0.1247 -0.4676,-0.1871 -0.8845,-0.1871 -1.3948,0 -2.4234,1.3326 -3.0936,3.9937 0.5026,-0.0584 0.978,-0.1558 1.426,-0.2883 0.4481,-0.1364 0.8962,-0.3195 1.3404,-0.5494 0.448,-0.2338 0.8026,-0.5455 1.0675,-0.9351 0.2689,-0.3935 0.4013,-0.8377 0.4013,-1.3325zm-4.3949 3.9976c-0.0156,0.1207 -0.0234,0.3857 -0.0234,0.7987 0,0.9974 0.1519,1.6949 0.4558,2.0923 0.304,0.4013 0.7442,0.6 1.3209,0.6 0.5727,0 1.0559,-0.0974 1.4494,-0.2961 0.3896,-0.1987 0.9078,-0.6234 1.5468,-1.278 0.2494,0 0.4286,0.1247 0.5338,0.3741 -1.3364,1.726 -2.7936,2.591 -4.3716,2.591 -0.9351,0 -1.6481,-0.3312 -2.1391,-0.9936 -0.4909,-0.6623 -0.7364,-1.5117 -0.7364,-2.5559 0,-0.6078 0.0663,-1.2273 0.1988,-1.8585 0.1324,-0.6312 0.3545,-1.2546 0.6584,-1.8663 0.3039,-0.6118 0.6741,-1.1533 1.1066,-1.6209 0.4324,-0.4675 0.9779,-0.8533 1.6325,-1.1494 0.6546,-0.2961 1.3754,-0.4442 2.1585,-0.4442 0.7442,0 1.3014,0.191 1.6637,0.5728 0.3663,0.3779 0.5494,0.7637 0.5494,1.1533 0,0.2026 -0.0039,0.3545 -0.0117,0.4481 -0.0078,0.0974 -0.0467,0.261 -0.113,0.4909 -0.0701,0.2338 -0.1753,0.4325 -0.3156,0.5961 -0.1402,0.1637 -0.3545,0.3624 -0.6429,0.6 -0.2922,0.2338 -0.6389,0.4403 -1.0519,0.6195 -0.4092,0.1793 -0.9468,0.3663 -1.6092,0.565 -0.6624,0.1987 -1.4144,0.3857 -2.2598,0.5611z"/>
  <path id="text5115123" class="fil2" d="M50.666 222.92l0.0974 -0.0156c0.5182,-1.1066 1.0948,-1.9832 1.7299,-2.6378 0.6351,-0.6546 1.2429,-0.9819 1.8196,-0.9819 0.4052,0 0.7091,0.113 0.9156,0.3351 0.2026,0.226 0.3078,0.4793 0.3078,0.7598 0,0.3273 -0.1052,0.6273 -0.3078,0.9039 -0.2065,0.2728 -0.4598,0.4091 -0.7559,0.4091 -0.2494,0 -0.5143,-0.1636 -0.787,-0.4909 -0.152,-0.1909 -0.3156,-0.2844 -0.491,-0.2844 -0.4325,0 -1.4455,1.426 -3.0391,4.282l-0.6273 2.8092c-0.0233,0.1052 -0.0623,0.2844 -0.1168,0.5338 -0.0546,0.2493 -0.0975,0.4324 -0.1247,0.5532 -0.0273,0.1208 -0.078,0.2416 -0.1481,0.3546 -0.074,0.1169 -0.1636,0.1987 -0.2688,0.2494 -0.1052,0.0506 -0.2416,0.074 -0.4013,0.074 -0.5923,0 -0.8884,-0.2104 -0.8884,-0.6273 0,-0.1052 0.0156,-0.226 0.0468,-0.3663 0.0311,-0.1363 0.0701,-0.3 0.1169,-0.4909 0.0428,-0.1948 0.0779,-0.3507 0.0974,-0.4714l1.3364 -5.9808c0.1052,-0.3585 0.1597,-0.6858 0.1597,-0.9897 0,-0.2805 -0.1402,-0.4363 -0.4208,-0.4636l-0.9351 -0.0702c-0.1753,-0.2493 -0.1831,-0.4675 -0.0234,-0.6506 1.5897,-0.2065 2.5248,-0.3078 2.8054,-0.3078 0.335,0 0.5026,0.1909 0.5026,0.5805 0,0.0546 -0.0039,0.1169 -0.0117,0.1909 -0.0078,0.0702 -0.0195,0.1559 -0.0351,0.2533 -0.0156,0.1013 -0.0311,0.1909 -0.0467,0.2688 -0.0195,0.078 -0.0429,0.1909 -0.0741,0.3351 -0.035,0.1442 -0.0584,0.2572 -0.0779,0.339 -0.0195,0.0818 -0.0467,0.2104 -0.0857,0.3818 -0.0351,0.1676 -0.0662,0.2961 -0.0818,0.378l-0.187 0.8377z"/>
  <path id="text51151234" class="fil2" d="M71.0746 214.161c1.0286,0 1.9832,0.1754 2.8676,0.5299 0.8845,0.3546 1.4962,0.5338 1.8391,0.5338 -0.1364,1.4455 -0.2065,2.6417 -0.2065,3.5924l-0.7091 0.1364c-0.1052,-1.1845 -0.4715,-2.1352 -1.0949,-2.8521 -0.6273,-0.713 -1.6793,-1.0715 -3.1638,-1.0715 -1.5468,0 -2.965,0.6429 -4.2547,1.9287 -1.2896,1.2857 -2.1312,2.9339 -2.5287,4.9404 -0.0311,0.152 -0.0506,0.3039 -0.0662,0.4559 -0.0156,0.1519 -0.0312,0.3078 -0.0429,0.4636 -0.0116,0.1559 -0.0155,0.3117 -0.0155,0.4715 0,0.7169 0.0974,1.4027 0.2961,2.0572 0.1987,0.6507 0.4909,1.2507 0.8727,1.7962 0.3858,0.5416 0.9001,0.978 1.5469,1.3053 0.6467,0.3272 1.3831,0.4909 2.2052,0.4909 1.43,0 2.6028,-0.3741 3.5145,-1.126l0.6974 -3.5729c0.0078,-0.039 0.0156,-0.074 0.0195,-0.1091 0.0039,-0.0351 0.0078,-0.0662 0.0117,-0.0974 0.0039,-0.0312 0.0039,-0.0624 0.0039,-0.0896 0,-0.1637 -0.039,-0.2884 -0.1208,-0.3858 -0.0779,-0.0935 -0.1948,-0.1636 -0.3468,-0.2026 -0.1519,-0.0428 -0.3584,-0.074 -0.6156,-0.0974l-0.561 -0.0467c-0.1208,0 -0.1715,-0.0624 -0.1481,-0.1832l0.1247 -0.6156 0.0467 -0.0467c1.4027,0.0312 2.3417,0.0467 2.8248,0.0467 0.4832,0 1.1806,-0.0155 2.0845,-0.0467l0.0468 0.0467 -0.113 0.6156c-0.0156,0.0936 -0.0974,0.152 -0.2416,0.1832 -0.374,0.0467 -0.6507,0.1363 -0.8338,0.2688 -0.1831,0.1325 -0.3039,0.3857 -0.3662,0.7559l-0.5299 2.7196c-0.0468,0.2338 0.0311,0.4519 0.2338,0.6468 -1.917,1.4455 -4.0522,2.1702 -6.4055,2.1702 -1.9248,0 -3.456,-0.5572 -4.5937,-1.6676 -1.1377,-1.1105 -1.7066,-2.5248 -1.7066,-4.2431 0,-0.1597 0.0039,-0.3233 0.0156,-0.487 0.0117,-0.1636 0.0312,-0.3312 0.0546,-0.4987 0.0194,-0.1714 0.0467,-0.3429 0.0779,-0.5104 0.4792,-2.4664 1.6364,-4.4496 3.4716,-5.9496 1.8351,-1.504 3.7715,-2.256 5.8093,-2.256z"/>
  <path id="text511512345" class="fil2" d="M80.3672 222.92l0.0974 -0.0156c0.5182,-1.1066 1.0948,-1.9832 1.7299,-2.6378 0.6351,-0.6546 1.2429,-0.9819 1.8196,-0.9819 0.4052,0 0.7091,0.113 0.9156,0.3351 0.2026,0.226 0.3078,0.4793 0.3078,0.7598 0,0.3273 -0.1052,0.6273 -0.3078,0.9039 -0.2065,0.2728 -0.4598,0.4091 -0.7559,0.4091 -0.2494,0 -0.5143,-0.1636 -0.787,-0.4909 -0.152,-0.1909 -0.3156,-0.2844 -0.491,-0.2844 -0.4325,0 -1.4455,1.426 -3.0391,4.282l-0.6273 2.8092c-0.0233,0.1052 -0.0623,0.2844 -0.1168,0.5338 -0.0546,0.2493 -0.0975,0.4324 -0.1247,0.5532 -0.0273,0.1208 -0.078,0.2416 -0.1481,0.3546 -0.074,0.1169 -0.1636,0.1987 -0.2688,0.2494 -0.1052,0.0506 -0.2416,0.074 -0.4013,0.074 -0.5923,0 -0.8884,-0.2104 -0.8884,-0.6273 0,-0.1052 0.0156,-0.226 0.0468,-0.3663 0.0311,-0.1363 0.0701,-0.3 0.1169,-0.4909 0.0428,-0.1948 0.0779,-0.3507 0.0974,-0.4714l1.3364 -5.9808c0.1052,-0.3585 0.1597,-0.6858 0.1597,-0.9897 0,-0.2805 -0.1402,-0.4363 -0.4208,-0.4636l-0.9351 -0.0702c-0.1753,-0.2493 -0.1831,-0.4675 -0.0234,-0.6506 1.5897,-0.2065 2.5248,-0.3078 2.8054,-0.3078 0.335,0 0.5026,0.1909 0.5026,0.5805 0,0.0546 -0.0039,0.1169 -0.0117,0.1909 -0.0078,0.0702 -0.0195,0.1559 -0.0351,0.2533 -0.0156,0.1013 -0.0311,0.1909 -0.0467,0.2688 -0.0195,0.078 -0.0429,0.1909 -0.0741,0.3351 -0.035,0.1442 -0.0584,0.2572 -0.0779,0.339 -0.0195,0.0818 -0.0467,0.2104 -0.0857,0.3818 -0.0351,0.1676 -0.0662,0.2961 -0.0818,0.378l-0.187 0.8377z"/>
  <path id="text5115123456" class="fil2" d="M87.3181 225.574c0,1.1027 0.1792,1.9365 0.5377,2.4975 0.3545,0.565 0.7364,0.8455 1.1416,0.8455 1.0247,0 1.8507,-0.4753 2.4741,-1.426 0.6702,-1.0286 1.0052,-2.4469 1.0052,-4.2586 0,-0.9507 -0.1168,-1.6638 -0.3545,-2.143 -0.3507,-0.6857 -0.8221,-1.0286 -1.4144,-1.0286 -0.7597,0 -1.4143,0.3234 -1.9637,0.9663 -0.5455,0.6428 -0.9234,1.3637 -1.1221,2.1624 -0.2026,0.7987 -0.3039,1.5936 -0.3039,2.3845zm-1.9404 0.1831c0,-0.7325 0.1208,-1.4689 0.3585,-2.2092 0.2416,-0.7402 0.5883,-1.4377 1.0403,-2.0845 0.452,-0.6467 1.0559,-1.1688 1.8157,-1.574 0.7558,-0.4014 1.6013,-0.604 2.5364,-0.604 2.2014,0 3.2963,1.2624 3.2885,3.7911 0,1.352 -0.3429,2.6027 -1.0286,3.7482 -0.6819,1.1455 -1.5468,1.9832 -2.591,2.517 -0.5923,0.2961 -1.3092,0.4403 -2.1547,0.4325 -0.7013,0 -1.2857,-0.1442 -1.7533,-0.4286 -0.4676,-0.2844 -0.8026,-0.6624 -1.0052,-1.1299 -0.1987,-0.4676 -0.3351,-0.8923 -0.4052,-1.278 -0.0663,-0.3857 -0.1014,-0.7793 -0.1014,-1.1806z"/>
  <path id="text51151234567" class="fil2" d="M105.689 221.296l-1.2936 5.3262c-0.0896,0.7598 -0.1363,1.2156 -0.1363,1.3598 0,0.2688 0.0818,0.4013 0.2415,0.4013 0.1208,0 0.3273,-0.113 0.6273,-0.3429 0.2962,-0.2298 0.5923,-0.5065 0.8884,-0.8338 0.2688,0 0.4442,0.1325 0.5377,0.4014 -1.1416,1.4455 -2.2248,2.1663 -3.2534,2.1663 -0.5806,0 -0.8689,-0.2533 -0.8689,-0.7637 0,-0.5026 0.1325,-1.2234 0.4013,-2.1585l0.2611 -0.9001 -0.0702 -0.0467c-0.9506,1.3832 -1.7533,2.3767 -2.4039,2.9728 -0.6546,0.5962 -1.4066,0.8962 -2.2482,0.8962 -0.452,0 -0.8221,-0.1559 -1.1221,-0.4637 -0.2961,-0.3078 -0.4442,-0.7714 -0.4442,-1.3948 0,-0.4637 0.074,-0.9897 0.226,-1.5741l1.0364 -3.9275c0.2026,-0.748 0.3039,-1.1883 0.3039,-1.3247 0,-0.2688 -0.0818,-0.4013 -0.2416,-0.4013 -0.1207,0 -0.3506,0.113 -0.6857,0.3351 -0.3351,0.226 -0.6429,0.5026 -0.9234,0.8299 -0.265,0 -0.4442,-0.1325 -0.5377,-0.4013 1.1416,-1.4456 2.3183,-2.1664 3.53,-2.1664 0.5611,0 0.8416,0.2572 0.8416,0.7754 0,0.1208 -0.1597,0.8377 -0.4792,2.1507l-1.0092 3.8106c-0.1402,0.5494 -0.2104,1.0442 -0.2104,1.4922 0,0.5806 0.2338,0.8689 0.6975,0.8689 0.5454,0 1.1182,-0.3584 1.7143,-1.0792 0.6,-0.717 1.3715,-1.8975 2.3222,-3.5301l0.6546 -2.5793c0.0311,-0.1286 0.0857,-0.3429 0.1636,-0.6507 0.0779,-0.3039 0.1325,-0.526 0.1676,-0.6584 0.0311,-0.1325 0.1129,-0.265 0.2454,-0.3975 0.1286,-0.1363 0.2883,-0.2026 0.4793,-0.2026 0.6,0 0.9039,0.2026 0.9039,0.604 0,0.074 -0.0234,0.1987 -0.0623,0.3701 -0.0429,0.1753 -0.0897,0.3662 -0.1403,0.5766 -0.0507,0.2104 -0.0896,0.3663 -0.113,0.4598z"/>
  <path id="text511512345678" class="fil2" d="M112.41 220.111c0.9156,-0.5493 1.8079,-0.826 2.6729,-0.826 1.991,0 2.9884,1.1689 2.9884,3.5028 0,1.6676 -0.6273,3.2728 -1.8819,4.8158 -1.1845,1.4455 -2.5326,2.1702 -4.0443,2.1702 -0.6546,0 -1.2196,-0.2533 -1.6988,-0.7637l-1.0286 4.3054c-0.0585,0.2532 -0.0468,0.4481 0.0467,0.5961 0.0897,0.1442 0.191,0.2377 0.304,0.2767 0.1091,0.0428 0.2493,0.0701 0.413,0.0857l0.448 0.0701c0.0896,0.0156 0.1364,0.0779 0.1364,0.1831l0 0.4676 -0.0468 0.0467c-1.0558,-0.0311 -1.8896,-0.0467 -2.4975,-0.0467l-2.4312 0.1169 -0.0468 -0.0468 0 -0.4481c0,-0.0896 0.0779,-0.1519 0.2377,-0.1831l0.4364 -0.0662c0.6974,-0.1091 1.1143,-0.4559 1.2429,-1.052l2.4079 -10.7303c-0.7754,0.639 -1.3364,1.1805 -1.6754,1.6286 -0.3897,0 -0.6351,-0.1636 -0.7325,-0.487 0.5338,-0.6663 1.426,-1.4533 2.6767,-2.3534l0.3078 -1.3948c0.0195,-0.0819 0.0546,-0.2533 0.113,-0.5143 0.0585,-0.2572 0.0974,-0.4442 0.1208,-0.5494 0.0234,-0.1091 0.0701,-0.2455 0.1403,-0.4091 0.0662,-0.1637 0.1597,-0.2767 0.2766,-0.3429 0.1169,-0.0623 0.2571,-0.0974 0.4247,-0.0974 0.6507,0 0.9741,0.2143 0.9741,0.639 0,0.0779 -0.0195,0.1987 -0.0546,0.3701 -0.039,0.1715 -0.0818,0.3624 -0.1286,0.5806 -0.0467,0.2143 -0.0818,0.3662 -0.1013,0.4558zm3.7443 3.0547c0,-1.8741 -0.6039,-2.8092 -1.8156,-2.8092 -0.6078,0 -1.3286,0.2688 -2.1586,0.8026l-1.539 6.8224c0.4637,0.6546 1.0403,0.9819 1.7339,0.9819 0.4324,0 0.8688,-0.1559 1.3013,-0.4637 0.4364,-0.3078 0.8104,-0.713 1.1299,-1.2156 0.4286,-0.6624 0.7598,-1.3637 0.9936,-2.1118 0.2377,-0.7442 0.3545,-1.4144 0.3545,-2.0066z"/>
  <path id="text5115123456789" class="fil2" d="M130.228 216.226l-0.9351 4.7612 1.6559 0c2.1508,0 3.4092,-0.8961 3.7677,-2.6845 0.0273,-0.152 0.0507,-0.2922 0.0662,-0.4286 0.0156,-0.1325 0.0234,-0.265 0.0234,-0.3935 0,-0.5377 -0.1325,-0.9897 -0.3935,-1.3481 -0.2611,-0.3546 -0.565,-0.5962 -0.9078,-0.7248 -0.3429,-0.1246 -0.7208,-0.187 -1.13,-0.187 -0.6545,0 -1.126,0.0351 -1.4104,0.1013 -0.2844,0.0702 -0.4637,0.1637 -0.5377,0.2806 -0.0701,0.1168 -0.1364,0.3272 -0.1987,0.6234zm-1.0754 5.5599l-1.1727 5.9379c-0.0234,0.1364 -0.0351,0.2455 -0.0351,0.3312 0,0.2728 0.1208,0.4637 0.3662,0.5767 0.2416,0.1091 0.6858,0.1636 1.3326,0.1636 1.578,0 2.704,-0.2727 3.3819,-0.8143 0.6741,-0.5455 1.1144,-1.3091 1.3131,-2.291 0.0506,-0.2961 0.0818,-0.5805 0.0896,-0.8572 0,-0.5922 -0.1247,-1.1104 -0.3702,-1.5585 -0.2493,-0.4442 -0.6584,-0.8026 -1.2351,-1.0793 -0.5727,-0.2727 -1.2819,-0.4091 -2.1273,-0.4091l-1.543 0zm-5.2365 7.3172c0.0311,-0.1208 0.0896,-0.1831 0.1831,-0.1831l0.6857 -0.0468c0.5026,-0.0272 0.8338,-0.1013 0.9936,-0.222 0.1597,-0.1169 0.2805,-0.3702 0.3623,-0.7598l2.2832 -11.7706c0.039,-0.1637 0.0585,-0.3039 0.0585,-0.4091 0,-0.2065 -0.0741,-0.3429 -0.2182,-0.4169 -0.1442,-0.0741 -0.4169,-0.1247 -0.8221,-0.1559l-0.6507 -0.0429c-0.0896,0 -0.1364,-0.0545 -0.1364,-0.1597l0.0935 -0.4676 0.0663 -0.0467c1.4026,0.0312 2.3455,0.0467 2.8326,0.0467 0.3117,0 0.7831,-0.0077 1.4143,-0.0233 0.6312,-0.0156 1.0676,-0.0234 1.313,-0.0234 2.8015,0 4.2041,0.9117 4.2119,2.7391 0,0.261 -0.0312,0.5454 -0.0896,0.8571 -0.1091,0.6079 -0.4208,1.1962 -0.939,1.7573 -0.5143,0.5649 -1.1026,1.0013 -1.7572,1.313l0 0.0468c1.804,0.5727 2.704,1.6559 2.704,3.2533 0,0.2728 -0.0234,0.5611 -0.0779,0.8572 -0.2377,1.2001 -0.8728,2.2287 -1.9053,3.0742 -1.0364,0.8494 -2.5676,1.2741 -4.6015,1.2741 -0.7598,0 -1.4338,-0.0078 -2.0183,-0.0234 -0.5883,-0.0156 -0.9779,-0.0234 -1.1766,-0.0234 -0.5027,0 -1.4533,0.0156 -2.856,0.0468l-0.0429 -0.0468 0.0897 -0.4442z"/>
  <path id="text511512345678910" class="fil2" d="M144.761 220.894c0,-0.339 -0.0857,-0.5728 -0.2571,-0.7013 -0.1714,-0.1247 -0.4676,-0.1871 -0.8845,-0.1871 -1.3948,0 -2.4234,1.3326 -3.0936,3.9937 0.5026,-0.0584 0.978,-0.1558 1.426,-0.2883 0.4481,-0.1364 0.8962,-0.3195 1.3404,-0.5494 0.448,-0.2338 0.8026,-0.5455 1.0675,-0.9351 0.2689,-0.3935 0.4013,-0.8377 0.4013,-1.3325zm-4.3949 3.9976c-0.0156,0.1207 -0.0234,0.3857 -0.0234,0.7987 0,0.9974 0.1519,1.6949 0.4558,2.0923 0.304,0.4013 0.7442,0.6 1.3209,0.6 0.5727,0 1.0559,-0.0974 1.4494,-0.2961 0.3896,-0.1987 0.9078,-0.6234 1.5468,-1.278 0.2494,0 0.4286,0.1247 0.5338,0.3741 -1.3364,1.726 -2.7936,2.591 -4.3716,2.591 -0.9351,0 -1.6481,-0.3312 -2.1391,-0.9936 -0.4909,-0.6623 -0.7364,-1.5117 -0.7364,-2.5559 0,-0.6078 0.0663,-1.2273 0.1988,-1.8585 0.1324,-0.6312 0.3545,-1.2546 0.6584,-1.8663 0.3039,-0.6118 0.6741,-1.1533 1.1066,-1.6209 0.4324,-0.4675 0.9779,-0.8533 1.6325,-1.1494 0.6546,-0.2961 1.3754,-0.4442 2.1585,-0.4442 0.7442,0 1.3014,0.191 1.6637,0.5728 0.3663,0.3779 0.5494,0.7637 0.5494,1.1533 0,0.2026 -0.0039,0.3545 -0.0117,0.4481 -0.0078,0.0974 -0.0467,0.261 -0.113,0.4909 -0.0701,0.2338 -0.1753,0.4325 -0.3156,0.5961 -0.1402,0.1637 -0.3545,0.3624 -0.6429,0.6 -0.2922,0.2338 -0.6389,0.4403 -1.0519,0.6195 -0.4092,0.1793 -0.9468,0.3663 -1.6092,0.565 -0.6624,0.1987 -1.4144,0.3857 -2.2598,0.5611z"/>
  <path id="text51151234567891011" class="fil2" d="M152.53 215.919l-2.3884 10.664c-0.2065,0.904 -0.3117,1.3949 -0.3117,1.4689 0,0.2221 0.0935,0.3312 0.2844,0.3312 0.152,0 0.4013,-0.1286 0.7442,-0.3896 0.3429,-0.2572 0.6779,-0.5806 1.0013,-0.9702 0.2377,0 0.4091,0.1364 0.5143,0.4013 -0.9507,1.5741 -2.0806,2.3573 -3.3897,2.3495 -0.6702,0 -1.0053,-0.3429 -1.0053,-1.0247 0,-0.2689 0.1169,-0.9312 0.3546,-1.9871l2.3144 -10.3758c0.1052,-0.4792 0.1597,-0.8689 0.1597,-1.165 0,-0.4364 -0.1636,-0.6545 -0.4909,-0.6623l-0.7169 -0.0468c-0.074,0 -0.1169,-0.039 -0.1247,-0.113l0.0818 -0.561c1.3559,-0.0897 2.4469,-0.2962 3.269,-0.6157 0.1909,0 0.2883,0.0819 0.2883,0.2416 -0.1675,0.6234 -0.3623,1.4416 -0.5844,2.4547z"/>
  <path id="text5115123456789101112" class="fil2" d="M161.632 219.421c0.1208,0.0312 0.6663,0.0468 1.6325,0.0468l-1.6091 7.2704c-0.1559,0.7481 -0.2338,1.1845 -0.2416,1.313 0,0.2221 0.0935,0.3312 0.2844,0.3312 0.265,0 0.7053,-0.413 1.3131,-1.2429 0.2026,0 0.3818,0.1247 0.5338,0.374 -0.6858,1.5157 -1.6832,2.2677 -3.0001,2.2599 -0.639,0 -0.9546,-0.3507 -0.9468,-1.0481 0,-0.3429 0.0779,-0.7715 0.2298,-1.278l0.3078 -0.9818 -0.0467 -0.0468c-1.5118,2.2442 -2.8326,3.3625 -3.9586,3.3547 -1.5157,0 -2.2676,-1.0481 -2.2599,-3.1482 0,-1.7728 0.6585,-3.4404 1.9755,-5.0028 1.313,-1.5585 2.6182,-2.3378 3.9118,-2.3378 0.4052,0 1.0286,0.0468 1.8741,0.1364zm-1.1767 5.0028c0.1754,-0.4364 0.3312,-0.9818 0.4715,-1.6442 0.1441,-0.6624 0.2377,-1.2157 0.2805,-1.6559l0.0702 -0.6741c-0.4637,-0.2961 -0.9468,-0.4442 -1.4495,-0.4442 -1.013,0 -1.9481,0.7092 -2.8014,2.1274 -0.8572,1.4182 -1.2857,2.7897 -1.2857,4.1145 0,1.5 0.3428,2.2481 1.0286,2.2481 0.3701,0 0.9351,-0.4169 1.6871,-1.2546 0.7558,-0.8377 1.4182,-1.7767 1.9987,-2.817z"/>
  <path id="text511512345678910111213" class="fil2" d="M168.563 222.92l0.0974 -0.0156c0.5182,-1.1066 1.0948,-1.9832 1.7299,-2.6378 0.6351,-0.6546 1.2429,-0.9819 1.8196,-0.9819 0.4052,0 0.7091,0.113 0.9156,0.3351 0.2026,0.226 0.3078,0.4793 0.3078,0.7598 0,0.3273 -0.1052,0.6273 -0.3078,0.9039 -0.2065,0.2728 -0.4598,0.4091 -0.7559,0.4091 -0.2494,0 -0.5143,-0.1636 -0.787,-0.4909 -0.152,-0.1909 -0.3156,-0.2844 -0.491,-0.2844 -0.4325,0 -1.4455,1.426 -3.0391,4.282l-0.6273 2.8092c-0.0233,0.1052 -0.0623,0.2844 -0.1168,0.5338 -0.0546,0.2493 -0.0975,0.4324 -0.1247,0.5532 -0.0273,0.1208 -0.078,0.2416 -0.1481,0.3546 -0.074,0.1169 -0.1636,0.1987 -0.2688,0.2494 -0.1052,0.0506 -0.2416,0.074 -0.4013,0.074 -0.5923,0 -0.8884,-0.2104 -0.8884,-0.6273 0,-0.1052 0.0156,-0.226 0.0468,-0.3663 0.0311,-0.1363 0.0701,-0.3 0.1169,-0.4909 0.0428,-0.1948 0.0779,-0.3507 0.0974,-0.4714l1.3364 -5.9808c0.1052,-0.3585 0.1597,-0.6858 0.1597,-0.9897 0,-0.2805 -0.1402,-0.4363 -0.4208,-0.4636l-0.9351 -0.0702c-0.1753,-0.2493 -0.1831,-0.4675 -0.0234,-0.6506 1.5897,-0.2065 2.5248,-0.3078 2.8054,-0.3078 0.335,0 0.5026,0.1909 0.5026,0.5805 0,0.0546 -0.0039,0.1169 -0.0117,0.1909 -0.0078,0.0702 -0.0195,0.1559 -0.0351,0.2533 -0.0156,0.1013 -0.0311,0.1909 -0.0467,0.2688 -0.0195,0.078 -0.0429,0.1909 -0.0741,0.3351 -0.035,0.1442 -0.0584,0.2572 -0.0779,0.339 -0.0195,0.0818 -0.0467,0.2104 -0.0857,0.3818 -0.0351,0.1676 -0.0662,0.2961 -0.0818,0.378l-0.187 0.8377z"/>
  <path id="text51151234567891011121314" class="fil2" d="M183.439 221.296l-1.2936 5.3262c-0.0896,0.7598 -0.1363,1.2156 -0.1363,1.3598 0,0.2688 0.0818,0.4013 0.2415,0.4013 0.1208,0 0.3273,-0.113 0.6273,-0.3429 0.2962,-0.2298 0.5923,-0.5065 0.8884,-0.8338 0.2688,0 0.4442,0.1325 0.5377,0.4014 -1.1416,1.4455 -2.2248,2.1663 -3.2534,2.1663 -0.5806,0 -0.8689,-0.2533 -0.8689,-0.7637 0,-0.5026 0.1325,-1.2234 0.4013,-2.1585l0.2611 -0.9001 -0.0702 -0.0467c-0.9506,1.3832 -1.7533,2.3767 -2.4039,2.9728 -0.6546,0.5962 -1.4066,0.8962 -2.2482,0.8962 -0.452,0 -0.8221,-0.1559 -1.1221,-0.4637 -0.2961,-0.3078 -0.4442,-0.7714 -0.4442,-1.3948 0,-0.4637 0.074,-0.9897 0.226,-1.5741l1.0364 -3.9275c0.2026,-0.748 0.3039,-1.1883 0.3039,-1.3247 0,-0.2688 -0.0818,-0.4013 -0.2416,-0.4013 -0.1207,0 -0.3506,0.113 -0.6857,0.3351 -0.3351,0.226 -0.6429,0.5026 -0.9234,0.8299 -0.265,0 -0.4442,-0.1325 -0.5377,-0.4013 1.1416,-1.4456 2.3183,-2.1664 3.53,-2.1664 0.5611,0 0.8416,0.2572 0.8416,0.7754 0,0.1208 -0.1597,0.8377 -0.4792,2.1507l-1.0092 3.8106c-0.1402,0.5494 -0.2104,1.0442 -0.2104,1.4922 0,0.5806 0.2338,0.8689 0.6975,0.8689 0.5454,0 1.1182,-0.3584 1.7143,-1.0792 0.6,-0.717 1.3715,-1.8975 2.3222,-3.5301l0.6546 -2.5793c0.0311,-0.1286 0.0857,-0.3429 0.1636,-0.6507 0.0779,-0.3039 0.1325,-0.526 0.1676,-0.6584 0.0311,-0.1325 0.1129,-0.265 0.2454,-0.3975 0.1286,-0.1363 0.2883,-0.2026 0.4793,-0.2026 0.6,0 0.9039,0.2026 0.9039,0.604 0,0.074 -0.0234,0.1987 -0.0623,0.3701 -0.0429,0.1753 -0.0897,0.3662 -0.1403,0.5766 -0.0507,0.2104 -0.0896,0.3663 -0.113,0.4598z"/>
  <path id="text5115123456789101112131415" class="fil2" d="M187.99 229.774c-0.7792,-0.0468 -1.4182,-0.2455 -1.9247,-0.6039 -0.5066,-0.3585 -0.7598,-0.7637 -0.7598,-1.2118 0,-0.1909 0.0701,-0.374 0.2104,-0.5532 0.1402,-0.1793 0.3623,-0.2689 0.6584,-0.2689 0.3117,0 0.5611,0.1247 0.7481,0.3779 0.187,0.2494 0.3,0.5416 0.3468,0.8689 0.0312,0.2494 0.1247,0.4169 0.2805,0.5026 0.1559,0.0819 0.3974,0.1247 0.7247,0.1247 0.5806,0 1.0559,-0.1364 1.4261,-0.413 0.374,-0.2727 0.561,-0.713 0.561,-1.3247 0,-0.7598 -0.4753,-1.4611 -1.426,-2.1001 -1.3559,-0.9195 -2.0339,-1.9092 -2.0339,-2.9651 0,-0.7636 0.304,-1.4377 0.9118,-2.0338 0.6117,-0.5923 1.3987,-0.8884 2.365,-0.8884 0.7013,0 1.3169,0.2026 1.8546,0.604 0.5338,0.4052 0.8027,0.826 0.8027,1.2662 0,0.5338 -0.2806,0.7949 -0.8455,0.7871 -0.2806,0 -0.5221,-0.1208 -0.7247,-0.3702 -0.1987,-0.2454 -0.3156,-0.526 -0.3468,-0.8377 -0.0623,-0.448 -0.4091,-0.674 -1.0481,-0.674 -0.4637,0 -0.826,0.1636 -1.0832,0.4909 -0.261,0.3273 -0.3896,0.713 -0.3896,1.165 0,0.5611 0.3117,1.052 0.9351,1.4728 1.0286,0.6818 1.7494,1.3052 2.1624,1.8702 0.4169,0.5611 0.6234,1.1377 0.6234,1.7222 0,0.8922 -0.3311,1.613 -0.9935,2.1663 -0.6624,0.5493 -1.5546,0.826 -2.6845,0.826l-0.3507 0z"/>
 </g>
</svg>
