<?xml version="1.0" encoding="UTF-8" standalone="no"?>
<!-- Created with Inkscape (http://www.inkscape.org/) -->

<svg
   xmlns:dc="http://purl.org/dc/elements/1.1/"
   xmlns:cc="http://creativecommons.org/ns#"
   xmlns:rdf="http://www.w3.org/1999/02/22-rdf-syntax-ns#"
   xmlns:svg="http://www.w3.org/2000/svg"
   xmlns="http://www.w3.org/2000/svg"
   xmlns:sodipodi="http://sodipodi.sourceforge.net/DTD/sodipodi-0.dtd"
   xmlns:inkscape="http://www.inkscape.org/namespaces/inkscape"
   width="297mm"
   height="210mm"
   viewBox="0 0 1052.3622 744.09448"
   id="svg4934"
   version="1.1"
   inkscape:version="0.91 r13725"
   sodipodi:docname="slimak_for_t-shirt.svg">
  <defs
     id="defs4936" />
  <sodipodi:namedview
     id="base"
     pagecolor="#ffffff"
     bordercolor="#666666"
     borderopacity="1.0"
     inkscape:pageopacity="0.0"
     inkscape:pageshadow="2"
     inkscape:zoom="0.49497475"
     inkscape:cx="-128.7924"
     inkscape:cy="162.01098"
     inkscape:document-units="px"
     inkscape:current-layer="layer1"
     showgrid="false"
     inkscape:window-width="1855"
     inkscape:window-height="1056"
     inkscape:window-x="65"
     inkscape:window-y="24"
     inkscape:window-maximized="1" />
  <metadata
     id="metadata4939">
    <rdf:RDF>
      <cc:Work
         rdf:about="">
        <dc:format>image/svg+xml</dc:format>
        <dc:type
           rdf:resource="http://purl.org/dc/dcmitype/StillImage" />
        <dc:title></dc:title>
      </cc:Work>
    </rdf:RDF>
  </metadata>
  <g
     inkscape:label="Layer 1"
     inkscape:groupmode="layer"
     id="layer1"
     transform="translate(0,-308.26772)">
    <path
       style="fill:#ffffff;fill-rule:evenodd;stroke:#666666;stroke-width:10;stroke-linecap:round;stroke-linejoin:round;stroke-miterlimit:4;stroke-dasharray:none;stroke-opacity:1"
       d="m 920.3556,568.26735 c -8.46855,-27.41101 -9.65014,-69.57043 -4.29696,-92.81582 2.57815,-11.17239 6.44558,-31.79811 27.07131,-75.19811 5.28176,-11.11369 21.05541,-35.66537 21.05541,-35.66537 9.3879,3.07841 13.85686,-6.58265 12.89112,-12.03169 -1.28908,-6.44562 -7.73471,-11.17235 -12.03171,-10.31293 -8.70463,2.40086 -8.85282,6.29664 -8.16436,16.32877 0,0 -11.29096,16.32465 -18.47727,29.2198 -7.18632,12.89516 -12.11476,22.19609 -23.63366,48.55649 -11.5189,26.36038 -18.25339,49.66953 -28.36033,81.21395 l -12.46146,17.18811 28.36038,30.07923 z"
       id="path4149-6-3-6-6"
       inkscape:connector-curvature="0"
       sodipodi:nodetypes="ccscccczzcccc" />
    <path
       style="fill:#ffffff;fill-rule:evenodd;stroke:#666666;stroke-width:10;stroke-linecap:round;stroke-linejoin:round;stroke-miterlimit:4;stroke-dasharray:none;stroke-opacity:1"
       d="m 455.4168,820.24538 c 0,0 29.64957,-40.39219 50.27526,-55.00203 20.6258,-14.60996 83.36241,-53.71295 83.36241,-53.71295 0,0 47.67888,-18.6691 64.88519,-36.9545 17.2063,-18.28528 33.51683,-36.52472 40.3921,-45.11872 6.87527,-8.59411 33.5168,-36.95449 48.12676,-47.26748 14.60996,-10.31284 31.79807,-24.92268 57.58018,-36.09507 25.78223,-11.17226 44.68919,-16.32868 61.01787,-15.46926 16.32881,0.85942 35.23565,8.59412 48.12676,23.20396 12.89112,14.60996 24.06338,27.50107 27.50108,39.53278 3.43757,12.03169 6.01584,27.50096 5.15642,38.67323 -0.85942,11.17226 -3.43769,16.3288 0,26.64165 3.43757,10.31284 6.87527,19.76638 11.17227,27.50095 4.29699,7.73469 6.87526,15.46938 6.87526,15.46938 -1.52969,3.3376 -7.73465,2.1485 -10.31292,-3.86734 -2.57815,-6.01585 -14.60988,-23.63373 -14.60988,-23.63373 0,0 1.71885,4.29712 -11.17227,11.17227 -12.89111,6.87527 -20.09985,4.39914 -21.48522,13.75053 -1.71882,11.60204 -1.24584,12.99868 -0.85938,20.19604 0.38647,7.19735 8.59407,22.7743 3.43765,22.7743 -5.15643,0 -14.60996,-12.03169 -14.60996,-25.78222 l 0,-18.90696 c 0,0 -10.05326,5.83103 -14.18012,7.30492 -12.03172,4.29711 -28.79012,4.29711 -34.80596,5.15654 -6.01585,0.85942 -15.46937,3.86734 -28.36049,13.32076 -12.89111,9.45354 -21.48511,20.62581 -30.93864,36.9545 -9.45342,16.32869 -18.90684,38.67334 -27.50096,66.17429 -8.59411,27.50096 -25.78223,73.04945 -31.79807,87.65941 -6.01585,14.60996 -21.48511,39.53264 -29.2198,46.40791 -7.73469,6.87527 -27.21825,19.9483 -43.82976,29.2198 -18.47724,10.31284 -42.11092,18.90696 -65.31488,23.20406 -23.20395,4.297 -69.61188,5.1564 -69.61188,5.1564 0,0 -52.42376,2.5782 -76.48714,0.8595 -24.06338,-1.7189 -86.8001,1.7187 -107.4259,1.7187 -20.62569,0 -60.15845,0 -85.94056,-2.5782 -25.78223,-2.5782 -61.8773,-2.5782 -78.20598,-7.7347 -16.32881,-5.1564 -48.98619,-26.6416 -58.43973,-37.81387 -9.453416,-11.17227 -28.360375,-29.2198 -28.360375,-29.2198 0,0 -6.015845,-0.85943 12.03169,-4.297 18.047535,-3.43769 37.813795,-12.03169 52.423755,-10.31284 11.94928,1.40578 28.3605,-8.59412 28.3605,-8.59412 0,0 26.64153,7.73469 37.81392,13.75054 11.17226,6.01584 46.40779,-3.86747 64.45533,-0.42977 18.04753,3.43757 24.49315,1.2e-4 40.82184,-3.43758 16.32868,-3.43757 31.36842,-18.47718 50.27537,-26.21188 18.90684,-7.73469 36.09495,-16.75846 42.97022,-26.21188 6.87527,-9.45353 17.18811,-16.75845 22.34454,-36.52472 5.15654,-19.76638 24.0635,-20.6258 24.0635,-20.6258 z"
       id="path4147-3-6-6-3"
       inkscape:connector-curvature="0"
       sodipodi:nodetypes="csczssssssssssccsszsscssssssssscssssscsscssssssc" />
    <g
       id="g4177"
       style="stroke-width:10;stroke-miterlimit:4;stroke-dasharray:none;stroke-linejoin:round;stroke-linecap:round;stroke:#666666">
      <path
         style="fill:#ffffff;fill-rule:evenodd;stroke:#666666;stroke-width:10;stroke-linecap:round;stroke-linejoin:round;stroke-miterlimit:4;stroke-dasharray:none;stroke-opacity:1"
         d="M 649.21292,678.70109 C 643.81866,622.89716 621.23203,564.8258 572.20084,533.45744 524.5178,502.96127 469.90755,479.9981 412.43602,480.67193 c -53.567,0.0733 -110.26775,7.59511 -154.7076,39.92259 -90.0347,61.89289 -151.60204,170.71768 -142.25387,281.53005 5.45066,72.78038 60.5711,137.89863 130.90143,156.37295 64.73403,12.46267 136.28763,-9.44326 181.88777,-57.30275 21.29197,-21.4613 27.91556,-51.6698 31.30939,-80.6468 33.76577,-36.31057 78.71845,-59.36701 116.91123,-90.46294 24.22516,-17.15248 49.09132,-33.41034 72.72855,-51.38394 z"
         id="path4153-7-2-4-9"
         inkscape:connector-curvature="0" />
      <path
         style="fill:none;fill-rule:evenodd;stroke:#666666;stroke-width:10;stroke-linecap:round;stroke-linejoin:round;stroke-miterlimit:4;stroke-dasharray:none;stroke-opacity:1"
         d="m 459.22206,821.38694 c 2.36333,-39.15643 5.16377,-79.98223 -9.10643,-117.38874 -14.5104,33.16414 -65.36772,3.49728 -54.42347,-27.0239 0.97151,-20.46251 32.31359,-23.70307 37.97987,-23.23078 -16.44412,-31.53142 -39.78068,-62.24808 -72.87497,-77.20519 -10.37076,-2.34847 -39.77415,-5.30086 -13.47797,-9.53978 36.20063,-14.08878 -6.00136,-53.2229 -30.33155,-35.96392 -30.11052,0.5981 -22.42086,36.22589 -41.55387,46.40101 -28.30536,2.01931 -44.20427,25.15102 -64.39872,41.64917 -9.81713,9.94646 -25.36219,23.01139 -8.16961,30.05788 6.00745,17.83962 -8.82039,34.1219 -23.97903,25.22836 -8.27375,21.05576 -14.46606,44.43356 -6.81637,66.68029 2.4694,14.65073 7.43842,16.22742 18.02716,6.84821 22.05089,-0.36479 5.55173,33.3562 4.17487,29.4741 22.35909,18.26053 55.00101,24.71034 82.66277,16.80656 39.51031,-13.06432 63.46025,-58.66913 52.9962,-98.75428 -3.80253,-27.43297 -19.14381,-56.39113 -48.79404,-61.76393 -33.95363,-8.88251 -71.88961,27.98654 -59.76953,62.07606 18.29517,25.76079 55.38805,-29.33873 17.87906,-19.69369"
         id="path4155-5-0-9-4"
         inkscape:connector-curvature="0" />
      <path
         style="fill:none;fill-rule:evenodd;stroke:#666666;stroke-width:10;stroke-linecap:round;stroke-linejoin:round;stroke-miterlimit:4;stroke-dasharray:none;stroke-opacity:1"
         d="m 398.46178,928.84425 c -9.74298,-20.10184 -33.09415,-49.93725 -48.62459,-52.9504 -6.89144,29.91851 -54.94355,21.11651 -56.16993,-7.91264 -5.35275,-24.54992 22.04943,-39.64701 40.15932,-30.88761 -11.50882,-24.83917 -36.68783,-41.47173 -43.02285,-69.41044 -4.96341,-13.21836 -10.64192,-27.55397 6.27961,-31.27423 7.92955,-15.57561 -24.81115,-37.29096 -25.62916,-12.35691 -6.20626,-10.50495 -12.69204,-21.00674 -21.26926,-29.77699"
         id="path4178-3-6-5-8"
         inkscape:connector-curvature="0" />
      <path
         style="fill:none;fill-rule:evenodd;stroke:#666666;stroke-width:10;stroke-linecap:round;stroke-linejoin:round;stroke-miterlimit:4;stroke-dasharray:none;stroke-opacity:1"
         d="m 555.2643,523.72214 c -12.07688,-0.56847 -48.50636,7.61147 -42.00722,8.03758 35.99584,-4.02708 60.72323,44.31076 37.17002,71.46346 -23.81174,23.81184 -73.13475,5.65214 -70.97784,-29.94875 1.34799,-35.3598 -33.28305,-11.07508 -49.25375,-2.28768 -24.87393,14.58395 -51.8797,27.31477 -73.07617,46.81057 16.09579,5.21925 35.00875,25.33082 13.52414,40.80513 -22.74041,20.16757 -29.47649,-16.93559 -36.82887,-26.97616 -9.63417,17.27358 -58.41848,22.01354 -34.41302,45.35686 -2.22293,22.07921 -35.20907,12.02563 -23.4105,-7.37996 -7.70244,1.0525 -13.62855,6.98833 -21.04884,8.97614"
         id="path4180-5-1-0-1"
         inkscape:connector-curvature="0" />
      <path
         style="fill:none;fill-rule:evenodd;stroke:#666666;stroke-width:10;stroke-linecap:round;stroke-linejoin:round;stroke-miterlimit:4;stroke-dasharray:none;stroke-opacity:1"
         d="m 266.23664,515.28808 c -7.92476,10.14601 -34.71516,37.19297 -10.14418,32.91407 12.50811,25.00559 -27.67448,15.48759 -17.45595,39.36563 4.17427,10.96147 -5.44291,35.75229 10.41802,25.3066 19.09774,17.25107 -19.41446,12.93573 -7.20023,29.73164"
         id="path4182-6-5-4-2"
         inkscape:connector-curvature="0" />
      <path
         style="fill:none;fill-rule:evenodd;stroke:#666666;stroke-width:10;stroke-linecap:round;stroke-linejoin:round;stroke-miterlimit:4;stroke-dasharray:none;stroke-opacity:1"
         d="m 153.76512,896.99035 c 0.5429,-19.12229 26.30365,-35.31945 3.23383,-47.27542 -23.6928,-23.97832 23.89162,-55.77169 30.72213,-19.6587 1.03899,-16.23077 14.32216,-43.83788 36.91674,-41.45299 13.94197,-10.68395 6.10387,-46.32545 28.37183,-34.42201 16.08194,-7.66197 2.90138,-43.10187 -12.8742,-23.91569 -2.10729,-9.50843 -0.65593,-19.71747 -4.72677,-28.79015"
         id="path4184-2-5-8-9"
         inkscape:connector-curvature="0" />
      <path
         style="fill:none;fill-rule:evenodd;stroke:#666666;stroke-width:10;stroke-linecap:round;stroke-linejoin:round;stroke-miterlimit:4;stroke-dasharray:none;stroke-opacity:1"
         d="m 118.95913,727.25762 c 16.02096,-13.43036 15.25672,1.91751 15.13813,14.29358 25.68433,12.20644 12.95838,-44.64915 34.54686,-24.5537 13.51728,8.33485 19.59372,-11.8945 18.83863,-21.49352 17.01626,-10.90979 9.18854,22.69598 18.47859,4.32709 5.16765,-2.56093 11.04762,-2.60701 16.55623,-3.94175"
         id="path4186-9-4-7-3"
         inkscape:connector-curvature="0" />
    </g>
    <path
       style="fill:#ffffff;fill-rule:evenodd;stroke:#666666;stroke-width:10;stroke-linecap:round;stroke-linejoin:round;stroke-miterlimit:4;stroke-dasharray:none;stroke-opacity:1"
       d="m 894.57349,574.2832 c 1.28908,-3.86735 -3.43769,-42.54057 -4.72677,-49.84561 -1.28907,-7.30492 -3.86734,-35.23564 -3.86734,-45.54849 0,-10.31284 1.71884,-33.51692 4.297,-43.82976 2.57827,-10.31284 4.29711,-21.05542 11.17238,-41.68126 2.61375,-7.84127 11.17228,-24.06338 11.17228,-24.06338 7.82545,-2.19075 13.54825,-6.09894 13.75041,-13.32078 0,-5.58607 -4.72665,-11.60203 -8.16435,-12.46133 -3.43757,-0.85942 -11.17223,0.85934 -13.7505,5.15634 -2.57815,4.29712 -2.14853,14.18027 -2.14853,14.18027 l -9.45342,17.61776 c -8.68711,20.71555 -15.98941,41.67465 -19.33661,67.46349 -1.2892,10.31285 -4.29712,37.81392 -6.01585,47.69711 -1.71885,9.88319 -9.02377,38.24357 -12.03169,43.39999 -3.00792,5.15642 -13.32078,18.90695 -15.4694,27.50107 -2.14849,8.59399 -3.00791,11.17227 -0.85941,18.90685 2.14862,7.73469 8.59412,10.31287 15.46939,12.03172 22.17336,-0.20181 35.24113,-9.14414 39.96241,-23.20399 z"
       id="path4151-1-9-6-4"
       inkscape:connector-curvature="0"
       sodipodi:nodetypes="csscsccccccccssccc" />
  </g>
</svg>
