<?xml version="1.0" encoding="UTF-8" standalone="no"?>
<svg
   xmlns:dc="http://purl.org/dc/elements/1.1/"
   xmlns:cc="http://creativecommons.org/ns#"
   xmlns:rdf="http://www.w3.org/1999/02/22-rdf-syntax-ns#"
   xmlns:svg="http://www.w3.org/2000/svg"
   xmlns="http://www.w3.org/2000/svg"
   version="1.1"
   id="svg4934"
   viewBox="0 0 230.31499 178.16473"
   height="50.282047mm"
   width="65.000008mm">
  <defs
     id="defs4936" />
  <metadata
     id="metadata4939">
    <rdf:RDF>
      <cc:Work
         rdf:about="">
        <dc:format>image/svg+xml</dc:format>
        <dc:type
           rdf:resource="http://purl.org/dc/dcmitype/StillImage" />
        <dc:title></dc:title>
      </cc:Work>
    </rdf:RDF>
  </metadata>
  <g
     transform="translate(1434.8097,-1205.7022)"
     id="layer1">
    <path
       id="path4149-6-3-6-6-3"
       d="m -1250.0316,1250.7608 c -11.6109,2.7528 -26.2206,13.6665 -34.227,21.9965 -12.717,-22.1777 -19.6841,-26.2565 -33.7961,-32.3565 -14.1121,-6.0998 -36.9826,-7.1887 -57.2055,-0.661 -23.0649,9.839 -35.5878,24.3487 -44.4075,45.2177 -7.7325,18.2967 -9.235,48.5893 0.8957,59.2388 -4.8056,2.7912 -15.9621,6.1078 -15.8958,7.0454 3.2157,8.2686 14.1961,22.087 19.4279,25.4102 10.7281,6.8144 15.8128,5.5978 23.1921,6.3358 7.3792,0.7379 18.6945,0.7378 24.598,0.7378 5.9034,0 23.8595,-0.9836 30.7468,-0.4917 6.8874,0.4919 21.8922,-0.2461 21.8922,-0.2461 0,0 13.2821,-0.2458 19.9235,-1.4756 6.6413,-1.23 9.8777,-0.043 22.3319,-9.7128 12.4543,-9.6691 14.9013,-52.2345 25.7558,-58.8053 9.0377,-5.4708 16.8266,0.8218 24.3318,-2.351 7.5538,-3.1935 10.5967,-12.4642 11.7203,-20.1538 1.6226,-11.1044 -8.2067,-25.5745 -7.89,-32.7294 1.1411,-25.7762 21.586,-35.5762 10.941,-48.1143 -5.6782,-6.6879 -19.1449,-3.5216 -26.2716,1.5951 -11.5511,8.2934 -6.0828,24.1321 -16.0635,39.5202 z"
       style="fill:#ffffff;fill-rule:evenodd;stroke:#000000;stroke-width:0.28290483;stroke-linecap:butt;stroke-linejoin:miter;stroke-miterlimit:4;stroke-dasharray:none;stroke-opacity:1" />
    <path
       id="path4149-6-3-6-6"
       d="m -1226.0403,1267.4113 c -1.9913,-6.4453 -2.2692,-16.3584 -1.0104,-21.8241 0.6062,-2.6271 1.5156,-7.4769 6.3653,-17.6816 1.2419,-2.6133 4.9508,-8.3861 4.9508,-8.3861 2.2074,0.7238 3.2583,-1.5478 3.0312,-2.829 -0.3031,-1.5156 -1.8187,-2.6271 -2.829,-2.425 -2.0467,0.5645 -2.0816,1.4805 -1.9198,3.8395 0,0 -2.6548,3.8384 -4.3446,6.8705 -1.6898,3.0321 -2.8486,5.219 -5.557,11.4172 -2.7085,6.1982 -4.292,11.679 -6.6685,19.0962 l -2.9301,4.0414 6.6685,7.0726 z"
       style="fill:#99ff55;fill-rule:evenodd;stroke:#000000;stroke-width:0.84871453;stroke-linecap:butt;stroke-linejoin:miter;stroke-miterlimit:4;stroke-dasharray:none;stroke-opacity:1" />
    <path
       id="path4147-3-6-6-3"
       d="m -1335.3628,1326.6596 c 0,0 6.9715,-9.4976 11.8213,-12.9328 4.8499,-3.4353 19.6013,-12.6297 19.6013,-12.6297 0,0 11.2109,-4.3897 15.2567,-8.6892 4.0457,-4.2996 7.8809,-8.5883 9.4975,-10.6089 1.6166,-2.0208 7.8809,-8.6893 11.3161,-11.1142 3.4354,-2.4249 7.4769,-5.8601 13.5391,-8.4871 6.0622,-2.627 10.5079,-3.8394 14.3473,-3.6374 3.8395,0.2021 8.2851,2.0208 11.3162,5.456 3.0311,3.4354 5.6581,6.4664 6.4664,9.2956 0.8083,2.829 1.4145,6.4663 1.2124,9.0932 -0.202,2.627 -0.8083,3.8395 0,6.2644 0.8084,2.4249 1.6167,4.6477 2.627,6.4664 1.0104,1.8186 1.6166,3.6373 1.6166,3.6373 -0.3596,0.7848 -1.8187,0.5053 -2.4249,-0.9093 -0.6062,-1.4145 -3.4353,-5.5571 -3.4353,-5.5571 0,0 0.4042,1.0104 -2.6269,2.627 -3.0312,1.6166 -4.7262,1.0343 -5.0519,3.2332 -0.4041,2.728 -0.293,3.0564 -0.2021,4.7488 0.091,1.6923 2.0208,5.355 0.8083,5.355 -1.2125,0 -3.4353,-2.8291 -3.4353,-6.0623 l 0,-4.4456 c 0,0 -2.3638,1.3711 -3.3341,1.7176 -2.8292,1.0103 -6.7696,1.0103 -8.1841,1.2125 -1.4146,0.202 -3.6374,0.9093 -6.6685,3.1321 -3.0311,2.2228 -5.0518,4.8498 -7.2747,8.6892 -2.2228,3.8395 -4.4456,9.0934 -6.4663,15.5598 -2.0209,6.4663 -6.0624,17.1763 -7.4769,20.6117 -1.4145,3.4352 -5.0518,9.2954 -6.8705,10.9119 -1.8187,1.6167 -6.3999,4.6905 -10.3058,6.8706 -4.3446,2.4249 -9.9017,4.4456 -15.3577,5.456 -5.456,1.0105 -16.3681,1.2125 -16.3681,1.2125 0,0 -12.3266,0.6062 -17.9846,0.202 -5.6582,-0.404 -20.4096,0.4042 -25.2595,0.4042 -4.8497,0 -14.1452,0 -20.2074,-0.6062 -6.0622,-0.6062 -14.5494,-0.6062 -18.3888,-1.8187 -3.8394,-1.2125 -11.5183,-6.2643 -13.7411,-8.8912 -2.2228,-2.627 -6.6685,-6.8706 -6.6685,-6.8706 0,0 -1.4145,-0.2021 2.829,-1.0104 4.2437,-0.8083 8.8913,-2.8291 12.3266,-2.4249 2.8097,0.3305 6.6685,-2.0207 6.6685,-2.0207 0,0 6.2643,1.8187 8.8914,3.2332 2.6269,1.4145 10.9119,-0.9094 15.1555,-0.1008 4.2436,0.8083 5.7592,0 9.5985,-0.8083 3.8395,-0.8082 7.3758,-4.3446 11.8215,-6.1633 4.4456,-1.8187 8.4871,-3.9404 10.1037,-6.1633 1.6166,-2.2227 4.0415,-3.9404 5.2539,-8.5881 1.2125,-4.6477 5.6582,-4.8497 5.6582,-4.8497 z"
       style="fill:#99ff55;fill-rule:evenodd;stroke:#000000;stroke-width:0.84871453;stroke-linecap:butt;stroke-linejoin:miter;stroke-miterlimit:4;stroke-dasharray:none;stroke-opacity:1" />
    <path
       id="path4151-1-9-6-4"
       d="m -1232.1025,1268.8258 c 0.303,-0.9094 -0.8084,-10.0028 -1.1115,-11.7204 -0.3031,-1.7176 -0.9094,-8.2851 -0.9094,-10.7099 0,-2.425 0.4042,-7.881 1.0104,-10.3059 0.6063,-2.4249 1.0105,-4.9508 2.627,-9.8007 0.6146,-1.8437 2.627,-5.658 2.627,-5.658 1.84,-0.5152 3.1856,-1.4341 3.2332,-3.1322 0,-1.3135 -1.1114,-2.728 -1.9198,-2.9301 -0.8082,-0.202 -2.6268,0.2021 -3.2332,1.2124 -0.6061,1.0104 -0.5051,3.3343 -0.5051,3.3343 l -2.2228,4.1425 c -2.0426,4.8709 -3.7596,9.7991 -4.5467,15.863 -0.3032,2.4248 -1.0104,8.8912 -1.4146,11.2151 -0.4041,2.3238 -2.1217,8.9923 -2.829,10.2048 -0.7072,1.2124 -3.1321,4.4456 -3.6374,6.4664 -0.5052,2.0207 -0.7072,2.6269 -0.202,4.4456 0.5052,1.8186 2.0207,2.4249 3.6374,2.8291 5.2136,-0.048 8.2863,-2.1501 9.3965,-5.456 z"
       style="fill:#7fff2a;fill-rule:evenodd;stroke:#000000;stroke-width:0.84871453;stroke-linecap:butt;stroke-linejoin:miter;stroke-miterlimit:4;stroke-dasharray:none;stroke-opacity:1" />
    <path
       id="path4427"
       d="m -1390.7236,1319.8454 c 0.185,0.031 0.3987,-0.01 0.5723,0.039 0.8381,-0.9241 1.519,-2.0689 2.0723,-3.2422 0.5533,-1.1733 0.9801,-2.3754 1.3066,-3.418 0.6531,-2.0853 0.9098,-3.5294 1.0039,-2.8125 0.8085,0.5399 1.5036,0.7772 2.0899,0.7891 0.5862,0.012 1.0648,-0.2019 1.4375,-0.5606 0.3726,-0.3587 0.6389,-0.8638 0.8066,-1.4355 0.1677,-0.5718 0.2358,-1.2106 0.207,-1.8379 -0.029,-0.6273 -0.1526,-1.2422 -0.3691,-1.7676 -0.2165,-0.5254 -0.5262,-0.9606 -0.9219,-1.2266 -0.3957,-0.2659 -0.879,-0.3638 -1.4453,-0.2129 -0.5663,0.151 -1.215,0.5501 -1.9433,1.2754 -0.2445,-1.1061 -0.286,-2.2815 -0.3848,-3.4394 -0.099,-1.1558 -0.2547,-2.2938 -0.7246,-3.3242 -0.051,0.01 -0.1014,0.037 -0.1524,0.041 -0.6406,0.055 -1.2631,-0.015 -1.8086,-0.2383 -0.5113,-0.2095 -0.9352,-0.5832 -1.2597,-1.084 -0.8898,0.1998 -1.9977,0.2893 -2.9707,0.5938 -0.5172,0.1618 -0.9902,0.3858 -1.3594,0.7187 -0.3692,0.3329 -0.6341,0.7748 -0.7363,1.377 0.3228,-0.8279 0.3168,-1.5102 0.1152,-2.0352 -0.2016,-0.5249 -0.5989,-0.891 -1.0586,-1.0879 -0.4597,-0.1969 -0.9822,-0.2246 -1.4336,-0.068 -0.4514,0.1563 -0.8312,0.4966 -1.0078,1.0312 -0.198,0.5998 -0.2693,1.0125 -0.2656,1.3067 0,0.2941 0.082,0.4693 0.1816,0.5898 0.1998,0.2409 0.486,0.2659 0.4375,0.6035 -0.3174,0.5008 -0.7706,1.0046 -1.2676,1.4297 -0.4969,0.4251 -1.0364,0.7725 -1.5293,0.9609 -0.4928,0.1885 -0.9388,0.2169 -1.2441,0.01 -0.3053,-0.209 -0.4702,-0.6563 -0.4043,-1.4238 -0.072,0 -0.1002,0.011 -0.1699,0.01 -0.01,0.018 -0.012,0.055 -0.022,0.072 0.099,1.2457 0.3202,3.178 0.7227,5.084 0.2012,0.953 0.4491,1.9004 0.748,2.7519 0.2989,0.8516 0.6496,1.6073 1.0605,2.1797 0.2811,0.01 0.4331,-0.3932 0.7852,-0.8359 0.1761,-0.2214 0.4021,-0.4523 0.7188,-0.6465 0.3166,-0.1942 0.7245,-0.3523 1.2636,-0.4258 0.4346,-0.059 0.82,-0.015 1.1543,0.1074 0.3343,0.1229 0.6166,0.3247 0.8477,0.5821 0.4622,0.5147 0.7165,1.252 0.748,2.0195 0.032,0.7675 -0.159,1.5653 -0.582,2.2051 -0.2115,0.3199 -0.481,0.5997 -0.8106,0.8164 -0.3295,0.2166 -0.7192,0.3697 -1.1699,0.4355 1.0531,1.0808 2.1285,1.9092 3.2071,2.5547 1.0785,0.6456 2.161,1.1096 3.2246,1.4649 0.1169,0.039 0.2135,0.042 0.33,0.078 z"
       style="opacity:1;fill:#4d4d4d;fill-opacity:1;fill-rule:nonzero;stroke:#000000;stroke-width:1;stroke-linecap:round;stroke-linejoin:round;stroke-miterlimit:4;stroke-dasharray:none;stroke-opacity:1" />
    <path
       id="path4425"
       d="m -1372.4345,1317.7809 c -0.3805,-0.8044 -0.808,-1.5785 -1.1269,-2.3925 -0.6084,-1.5526 -1.0917,-3.0691 -1.4024,-4.3457 -0.3107,-1.2767 -0.4493,-2.3135 -0.3652,-2.9063 1.0246,-0.061 1.7546,-0.2985 2.2461,-0.6504 0.4914,-0.3518 0.7457,-0.8184 0.8164,-1.3398 0.071,-0.5215 -0.042,-1.0963 -0.2793,-1.666 -0.2377,-0.5698 -0.6015,-1.1341 -1.0352,-1.6309 -0.4336,-0.4968 -0.9359,-0.9259 -1.4531,-1.2285 -0.5172,-0.3026 -1.0487,-0.4778 -1.5371,-0.4649 -0.4885,0.013 -0.9359,0.2124 -1.2832,0.6621 -0.3473,0.4498 -0.5957,1.1485 -0.6895,2.1563 -0.731,-1.2372 -1.4758,-2.4713 -2.291,-3.6543 -0.812,-1.1784 -1.6948,-2.3049 -2.6992,-3.334 -0.029,0.03 -0.036,0.071 -0.066,0.1 -0.4677,0.4505 -1.0396,0.8293 -1.6543,1.1094 -0.5658,0.2578 -1.1699,0.4072 -1.7617,0.4766 0.4699,1.0304 0.626,2.1684 0.7246,3.3242 0.099,1.1579 0.1403,2.3333 0.3848,3.4394 0.7283,-0.7253 1.377,-1.1244 1.9433,-1.2754 0.5663,-0.1509 1.0496,-0.053 1.4453,0.2129 0.3957,0.266 0.7054,0.7012 0.9219,1.2266 0.2165,0.5254 0.3404,1.1403 0.3691,1.7676 0.029,0.6273 -0.039,1.2661 -0.207,1.8379 -0.1677,0.5717 -0.434,1.0768 -0.8066,1.4355 -0.3727,0.3587 -0.8513,0.5724 -1.4375,0.5606 -0.5863,-0.012 -1.2814,-0.2492 -2.0899,-0.7891 -0.094,-0.7169 -0.3508,0.7272 -1.0039,2.8125 -0.3265,1.0426 -0.7533,2.2447 -1.3066,3.418 -0.5533,1.1733 -1.2342,2.3181 -2.0723,3.2422 -0.1736,-0.049 -0.3873,-0.01 -0.5723,-0.039 2.0023,0.6278 3.9523,0.9303 5.6758,1.3262 1.773,0.2473 3.5478,0.2097 5.2657,-0.082 1.7178,-0.2918 3.3791,-0.838 4.9257,-1.6113 0.8838,-0.4419 1.6238,-1.1129 2.4219,-1.6973 z"
       style="opacity:1;fill:#333333;fill-opacity:1;fill-rule:nonzero;stroke:#000000;stroke-width:1;stroke-linecap:round;stroke-linejoin:round;stroke-miterlimit:4;stroke-dasharray:none;stroke-opacity:1" />
    <path
       id="path4423"
       d="m -1369.7255,1286.4333 c -0.1654,0.09 -0.3278,0.1831 -0.4902,0.2734 -1.0902,0.6063 -2.0982,1.214 -2.7891,1.8438 -0.3455,0.3149 -0.6107,0.6366 -0.7695,0.9648 -0.1589,0.3282 -0.2106,0.6633 -0.125,1.0098 0.8268,0.5422 1.3548,1.0883 1.6504,1.6133 0.2955,0.525 0.359,1.0286 0.2558,1.4902 -0.1031,0.4616 -0.373,0.8804 -0.7422,1.2324 -0.3692,0.3521 -0.8391,0.6377 -1.3418,0.834 -0.5026,0.1963 -1.0375,0.3044 -1.541,0.2988 -0.5035,-0.01 -0.974,-0.1252 -1.3457,-0.3789 -0.3717,-0.2536 -0.6446,-0.6416 -0.7519,-1.1894 -0.1074,-0.5479 -0.05,-1.2544 0.2402,-2.1426 0.2037,-0.3841 0.2009,-0.6188 0.041,-0.7363 -0.1599,-0.1176 -0.4767,-0.1188 -0.9062,-0.033 -0.8591,0.1712 -2.1646,0.6854 -3.5391,1.289 -0.4474,0.1965 -0.5409,0.2269 -0.9902,0.4336 0.082,0.1677 0.2937,0.3382 0.3437,0.5039 0.1898,0.6286 0.1546,1.24 -0.045,1.8067 -0.1866,0.53 -0.5382,1.0095 -0.9629,1.4394 1.0044,1.0291 1.8872,2.1556 2.6992,3.334 0.8152,1.183 1.56,2.4171 2.291,3.6543 0.094,-1.0078 0.3422,-1.7065 0.6895,-2.1563 0.3473,-0.4497 0.7947,-0.6491 1.2832,-0.6621 0.4884,-0.013 1.0199,0.1623 1.5371,0.4649 0.5172,0.3026 1.0195,0.7317 1.4531,1.2285 0.4337,0.4968 0.7975,1.0611 1.0352,1.6309 0.2376,0.5697 0.35,1.1445 0.2793,1.666 -0.071,0.5214 -0.325,0.988 -0.8164,1.3398 -0.4915,0.3519 -1.2215,0.5894 -2.2461,0.6504 -0.084,0.5928 0.054,1.6296 0.3652,2.9063 0.3107,1.2766 0.794,2.7931 1.4024,4.3457 0.3189,0.814 0.7464,1.5881 1.1269,2.3925 0.5986,-0.4383 1.2766,-0.7602 1.8164,-1.2734 1.2594,-1.1973 2.3471,-2.5926 3.2031,-4.1562 0.5873,-0.7531 1.0798,-1.5418 1.4883,-2.3594 0.4086,-0.8176 0.7333,-1.6645 0.9824,-2.5313 0.4984,-1.7334 0.6956,-3.5493 0.6719,-5.3867 -0.024,-1.8374 -0.2684,-3.6957 -0.6601,-5.5137 -0.3917,-1.8179 -0.9295,-3.5945 -1.5352,-5.2695 -0.4375,-1.4205 -1.1799,-2.7358 -2.1387,-3.8945 -0.312,-0.3772 -0.7641,-0.6206 -1.1191,-0.9629 z"
       style="opacity:1;fill:#1a1a1a;fill-opacity:1;fill-rule:nonzero;stroke:#000000;stroke-width:1;stroke-linecap:round;stroke-linejoin:round;stroke-miterlimit:4;stroke-dasharray:none;stroke-opacity:1" />
    <path
       id="path4421"
       d="m -1385.7294,1285.0212 c -0.8412,0.6124 -1.7014,1.212 -2.3672,1.9902 -0.9255,1.0816 -1.6576,2.314 -2.1348,3.668 -0.4771,1.3539 -0.6981,2.8298 -0.5996,4.4004 -0.01,0.9439 0.1807,1.6817 0.5098,2.2382 0.021,0.035 0.062,0.039 0.084,0.072 0,0 0,0 0,0 0.3245,0.5008 0.7484,0.8745 1.2597,1.084 0.5455,0.2234 1.168,0.2937 1.8086,0.2383 0.051,0 0.1012,-0.035 0.1524,-0.041 0,0 0,0 0,0 0.5918,-0.069 1.1959,-0.2188 1.7617,-0.4766 0.6147,-0.2801 1.1866,-0.6589 1.6543,-1.1094 0.03,-0.029 0.037,-0.07 0.066,-0.1 0,0 0,0 0,0 0.4247,-0.4299 0.7763,-0.9094 0.9629,-1.4394 0.1995,-0.5667 0.2347,-1.1781 0.045,-1.8067 -0.05,-0.1657 -0.2613,-0.3362 -0.3437,-0.5039 0,0 0,0 0,0 -0.2302,-0.4682 -0.4454,-0.9378 -0.961,-1.4062 0,0 0,0 0,0 0.5156,0.4684 0.7308,0.938 0.961,1.4062 0.4493,-0.2067 0.5428,-0.2371 0.9902,-0.4336 1.3745,-0.6036 2.68,-1.1178 3.5391,-1.289 0.4295,-0.086 0.7463,-0.084 0.9062,0.033 0.1599,0.1175 0.1627,0.3522 -0.041,0.7363 -0.2897,0.8882 -0.3476,1.5947 -0.2402,2.1426 0.1073,0.5478 0.3802,0.9358 0.7519,1.1894 0.3717,0.2537 0.8422,0.3734 1.3457,0.3789 0.5035,0.01 1.0384,-0.1025 1.541,-0.2988 0.5027,-0.1963 0.9726,-0.4819 1.3418,-0.834 0.3692,-0.352 0.6391,-0.7708 0.7422,-1.2324 0.1032,-0.4616 0.04,-0.9652 -0.2558,-1.4902 -0.2956,-0.525 -0.8236,-1.0711 -1.6504,-1.6133 -0.086,-0.3465 -0.034,-0.6816 0.125,-1.0098 0.1588,-0.3282 0.424,-0.6499 0.7695,-0.9648 0.6909,-0.6298 1.6989,-1.2375 2.7891,-1.8438 0.1624,-0.09 0.3248,-0.1831 0.4902,-0.2734 -0.7358,-0.7094 -1.4395,-1.4573 -2.3203,-1.9942 -1.3058,-0.7959 -2.742,-1.3864 -4.2207,-1.7187 -1.4788,-0.3323 -3.0009,-0.4062 -4.4785,-0.1738 -1.4403,0.3699 -2.8141,0.9455 -4.0606,1.6992 -0.3497,0.2114 -0.5958,0.5365 -0.9238,0.7754 z"
       style="opacity:1;fill:#000000;fill-opacity:1;fill-rule:nonzero;stroke:#000000;stroke-width:1;stroke-linecap:round;stroke-linejoin:round;stroke-miterlimit:4;stroke-dasharray:none;stroke-opacity:1" />
    <path
       id="path4419"
       d="m -1386.1591,1273.1891 c -0.7706,0.9648 -1.6894,1.8592 -2.6797,2.7325 -1.0135,0.8937 -2.0932,1.7677 -3.1367,2.6797 -1.0435,0.9119 -2.0507,1.8625 -2.9219,2.9082 -0.8712,1.0456 -1.6069,2.1857 -2.1035,3.4804 0.6224,-0.069 1.117,0.046 1.5,0.291 0.383,0.2452 0.6548,0.6217 0.8301,1.0801 0.1753,0.4584 0.2546,0.9991 0.2539,1.5703 -7e-4,0.5713 -0.082,1.1723 -0.2266,1.7559 -0.2902,1.1672 -0.8378,2.2591 -1.5156,2.873 -0.3389,0.307 -0.7094,0.4957 -1.0977,0.5137 -0.3883,0.018 -0.7931,-0.1344 -1.1992,-0.5059 -0.406,-0.3714 -0.7573,-0.5576 -1.0625,-0.5917 -0.3051,-0.034 -0.5653,0.083 -0.791,0.3164 -0.4513,0.4663 -0.7654,1.398 -1.0273,2.5136 -0.262,1.1156 -0.4709,2.4162 -0.7149,3.6211 -0.2381,1.1764 -0.516,2.2406 -0.8984,2.9746 0.07,0 0.097,-0.012 0.1699,-0.01 -0.066,0.7675 0.099,1.2148 0.4043,1.4238 0.3053,0.2091 0.7513,0.1807 1.2441,-0.01 0.4929,-0.1884 1.0324,-0.5358 1.5293,-0.9609 0.497,-0.4251 0.9502,-0.9289 1.2676,-1.4297 0.049,-0.3376 -0.2377,-0.3626 -0.4375,-0.6035 -0.1,-0.1205 -0.1779,-0.2957 -0.1816,-0.5898 0,-0.2942 0.068,-0.7069 0.2656,-1.3067 0.1766,-0.5346 0.5564,-0.8749 1.0078,-1.0312 0.4514,-0.1563 0.9739,-0.1286 1.4336,0.068 0.4597,0.1969 0.857,0.563 1.0586,1.0879 0.2016,0.525 0.2076,1.2073 -0.1152,2.0352 0.1022,-0.6022 0.3671,-1.0441 0.7363,-1.377 0.3692,-0.3329 0.8422,-0.5569 1.3594,-0.7187 0.973,-0.3045 2.0809,-0.394 2.9707,-0.5938 -0.022,-0.033 -0.063,-0.038 -0.084,-0.072 -0.3291,-0.5565 -0.5182,-1.2943 -0.5098,-2.2382 -0.099,-1.5706 0.1225,-3.0465 0.5996,-4.4004 0.4772,-1.354 1.2093,-2.5864 2.1348,-3.668 0.6658,-0.7782 1.526,-1.3778 2.3672,-1.9902 0.043,-1.433 0.1212,-2.9452 0.3281,-3.3301 0.5417,0.1037 0.9926,0.08 1.3613,-0.037 0.3687,-0.1169 0.655,-0.3249 0.8653,-0.586 0.4206,-0.522 0.5393,-1.2576 0.414,-1.8984 -0.063,-0.3204 -0.186,-0.616 -0.3632,-0.8516 -0.1772,-0.2355 -0.4084,-0.4099 -0.6856,-0.4843 -0.2771,-0.074 -0.6004,-0.05 -0.9629,0.1133 -0.3625,0.1631 -0.764,0.4644 -1.1972,0.9414 0.1967,-1.8134 -0.02,-3.6909 -0.1836,-5.584 0,-0.038 0,-0.077 -0.01,-0.1153 z"
       style="opacity:1;fill:#666666;fill-opacity:1;fill-rule:nonzero;stroke:#000000;stroke-width:1;stroke-linecap:round;stroke-linejoin:round;stroke-miterlimit:4;stroke-dasharray:none;stroke-opacity:1" />
    <path
       id="path4417"
       d="m -1386.1591,1273.1891 c 0,0.038 0,0.077 0.01,0.1153 0.1639,1.8931 0.3803,3.7706 0.1836,5.584 0.4332,-0.477 0.8347,-0.7783 1.1972,-0.9414 0.3625,-0.1631 0.6858,-0.1877 0.9629,-0.1133 0.2772,0.074 0.5084,0.2488 0.6856,0.4843 0.1772,0.2356 0.3006,0.5312 0.3632,0.8516 0.1253,0.6408 0.01,1.3764 -0.414,1.8984 -0.2103,0.2611 -0.4966,0.4691 -0.8653,0.586 -0.3687,0.1168 -0.8196,0.1408 -1.3613,0.037 -0.2069,0.3849 -0.2846,1.8971 -0.3281,3.3301 0.328,-0.2389 0.5741,-0.564 0.9238,-0.7754 1.2465,-0.7537 2.6203,-1.3293 4.0606,-1.6992 1.4776,-0.2324 2.9997,-0.1585 4.4785,0.1738 1.4787,0.3323 2.9149,0.9228 4.2207,1.7187 0.8808,0.5369 1.5845,1.2848 2.3203,1.9942 0.9446,-0.5159 1.9271,-1.029 2.8008,-1.5586 1.0266,-0.6224 1.904,-1.2634 2.4043,-1.9414 0.5003,-0.678 0.8409,-0.8976 1.0937,-0.8008 0.2528,0.097 0.4188,0.5103 0.5703,1.0957 0.1516,0.5854 0.2898,1.3428 0.4864,2.1309 0.1966,0.788 0.4519,1.6059 0.8398,2.3105 0.4349,0.8558 0.9726,1.4332 1.5664,1.7832 0.5939,0.35 1.2437,0.4719 1.9004,0.416 0.6567,-0.056 1.3199,-0.2884 1.9434,-0.6504 0.6234,-0.3619 1.207,-0.8517 1.7011,-1.4199 0.4942,-0.5681 0.8993,-1.2142 1.168,-1.8887 0.2687,-0.6744 0.4005,-1.3776 0.3477,-2.0585 -0.053,-0.681 -0.2893,-1.3401 -0.7598,-1.9278 -0.4706,-0.5876 -1.1759,-1.1036 -2.1602,-1.498 -1.3994,-0.2524 -2.1459,-0.5557 -2.4433,-0.8965 -0.1487,-0.1704 -0.1853,-0.3505 -0.1348,-0.5391 0.051,-0.1886 0.1879,-0.3857 0.3867,-0.5898 0.7955,-0.8166 2.5759,-1.7467 3.711,-2.7071 1.164,-0.7328 2.2994,-1.3742 3.4394,-2.0703 -1.4793,-1.2865 -3.0552,-2.4558 -4.7422,-3.4589 -0.5347,-0.4834 -1.6029,-0.8249 -2.7929,-1.086 -1.19,-0.2611 -2.5033,-0.4411 -3.5313,-0.6015 -1.028,-0.1605 -1.7695,-0.3011 -1.8183,-0.4825 -0.049,-0.1813 0.596,-0.4046 2.3437,-0.7285 0.9825,-0.2707 1.7692,-0.6319 2.3828,-1.0547 0.6136,-0.4227 1.0534,-0.9057 1.3399,-1.4238 0.2864,-0.5181 0.4206,-1.0702 0.4218,-1.627 0,-0.5567 -0.1308,-1.1195 -0.373,-1.6582 -0.2422,-0.5387 -0.5953,-1.0535 -1.0391,-1.5175 -0.4437,-0.464 -0.9766,-0.8764 -1.5801,-1.209 -0.6034,-0.3326 -1.2766,-0.5859 -1.998,-0.7305 -0.7214,-0.1445 -1.4917,-0.1803 -2.2891,-0.08 -1.5948,0.2005 -3.0204,0.5011 -4.2636,0.916 -1.2433,0.415 -2.304,0.9446 -3.1719,1.6055 -0.8679,0.6609 -1.5429,1.4525 -2.0117,2.3906 -0.4689,0.9382 -0.7313,2.0228 -0.7774,3.2696 -0.023,0.6234 -0.169,1.1373 -0.4121,1.5683 -0.2431,0.4311 -0.5846,0.7793 -0.998,1.0684 -0.8269,0.5783 -1.9446,0.9235 -3.1543,1.2363 -1.2097,0.3128 -2.5107,0.5927 -3.7051,1.043 -0.5972,0.2252 -1.1668,0.493 -1.6855,0.8281 -0.5188,0.3351 -0.9865,0.7389 -1.377,1.2344 -0.018,0.023 -0.044,0.042 -0.062,0.064 z"
       style="opacity:1;fill:#808080;fill-opacity:1;fill-rule:nonzero;stroke:#000000;stroke-width:1;stroke-linecap:round;stroke-linejoin:round;stroke-miterlimit:4;stroke-dasharray:none;stroke-opacity:1" />
    <path
       id="path4415"
       d="m -1414.0361,1304.5407 c 0.7337,-0.4282 1.3942,-0.7919 1.8282,-0.9473 0.5202,-0.1862 0.8484,-0.196 1.0488,-0.082 0.2004,0.114 0.2722,0.3519 0.2734,0.666 0,0.3141 -0.067,0.705 -0.1445,1.1192 -0.1548,0.8283 -0.3461,1.7565 -0.092,2.3847 0.1272,0.3142 0.3651,0.552 0.7754,0.666 0.4103,0.1141 0.9926,0.1042 1.8066,-0.082 0.6205,-0.2713 1.0645,-0.5895 1.3789,-0.9355 0.3145,-0.3461 0.4998,-0.7213 0.6055,-1.1094 0.2115,-0.7762 0.1037,-1.6022 0.064,-2.3496 -0.02,-0.3737 -0.023,-0.7276 0.041,-1.0449 0.064,-0.3174 0.1931,-0.598 0.4375,-0.8262 0.2444,-0.2282 0.6045,-0.4036 1.1269,-0.5098 0.4803,-0.098 1.1414,-0.1199 1.9356,-0.088 0.3824,-0.734 0.6603,-1.7982 0.8984,-2.9746 0.244,-1.2049 0.4529,-2.5055 0.7149,-3.6211 0.2619,-1.1156 0.576,-2.0473 1.0273,-2.5136 0.2257,-0.2332 0.4859,-0.3506 0.791,-0.3164 0.3052,0.034 0.6565,0.2203 1.0625,0.5917 0.4061,0.3715 0.8109,0.5239 1.1992,0.5059 0.3883,-0.018 0.7588,-0.2067 1.0977,-0.5137 0.6778,-0.6139 1.2254,-1.7058 1.5156,-2.873 0.1451,-0.5836 0.2259,-1.1846 0.2266,-1.7559 7e-4,-0.5712 -0.079,-1.1119 -0.2539,-1.5703 -0.1753,-0.4584 -0.4471,-0.8349 -0.8301,-1.0801 -0.383,-0.2451 -0.8776,-0.3596 -1.5,-0.291 0.4966,-1.2947 1.2323,-2.4348 2.1035,-3.4804 0.8712,-1.0457 1.8784,-1.9963 2.9219,-2.9082 1.0435,-0.912 2.1232,-1.786 3.1367,-2.6797 0.9903,-0.8733 1.9091,-1.7677 2.6797,-2.7325 -0.077,-0.9085 -0.1452,-1.8198 -0.1426,-2.7304 0,-0.9491 0.077,-1.8961 0.2813,-2.836 0.6585,0.285 1.3127,0.3146 1.9101,0.1582 0.5975,-0.1563 1.1367,-0.4984 1.5625,-0.957 0.4259,-0.4585 0.7391,-1.0345 0.8828,-1.6562 0.1438,-0.6217 0.1181,-1.2898 -0.1308,-1.9356 -0.1987,-0.5153 -0.4889,-0.7924 -0.8145,-0.9199 -0.3256,-0.1276 -0.6847,-0.1052 -1.0195,-0.018 -0.6696,0.1752 -1.2402,0.6074 -1.2402,0.6074 0.2918,-1.1815 0.6814,-2.1484 1.1211,-2.9648 0.4396,-0.8165 0.9279,-1.4812 1.4179,-2.0625 0.9531,-1.1307 1.8896,-1.9394 2.4903,-2.9043 -1.7206,1.0745 -3.429,2.1682 -5.0372,3.3867 -2.0265,1.5356 -3.9615,3.1748 -5.7988,4.8887 -1.8372,1.7138 -3.5772,3.5019 -5.2129,5.3379 -1.6357,1.836 -3.1679,3.7191 -4.5898,5.6211 -1.4219,1.9019 -2.7338,3.8227 -3.9297,5.7343 -1.1959,1.9117 -2.2748,3.8145 -3.2324,5.6797 -0.9577,1.8653 -1.7948,3.6945 -2.502,5.4571 -1.3849,3.4858 -2.5053,6.9487 -3.3574,10.3652 -0.262,1.0503 -0.3243,2.059 -0.5352,3.0996 z"
       style="opacity:1;fill:#e6e6e6;fill-opacity:1;fill-rule:nonzero;stroke:#000000;stroke-width:1;stroke-linecap:round;stroke-linejoin:round;stroke-miterlimit:4;stroke-dasharray:none;stroke-opacity:1" />
    <path
       id="path4413"
       d="m -1406.2704,1344.6169 c 0.4974,-1.995 1.0498,-3.5797 1.664,-4.8809 0.6408,-1.3574 1.3414,-2.4615 2.0918,-3.5722 -0.6111,-0.3072 -1.1659,-0.6965 -1.6582,-1.1446 -0.4922,-0.4481 -0.9232,-0.9541 -1.2832,-1.4961 -0.7199,-1.0839 -1.1611,-2.3105 -1.2715,-3.4883 -0.055,-0.5888 -0.027,-1.1651 0.09,-1.707 0.1173,-0.5418 0.3238,-1.0482 0.6269,-1.4961 0.3032,-0.4479 0.7027,-0.8376 1.2051,-1.1445 0.5024,-0.3069 1.1072,-0.5314 1.8223,-0.6504 0.715,-0.119 1.3209,-0.077 1.834,0.074 0.513,0.151 0.9336,0.4118 1.2812,0.7305 0.6953,0.6373 1.0966,1.5072 1.3496,2.2012 0.253,0.6939 0.3576,1.2104 0.461,1.1425 0.1034,-0.068 0.2048,-0.7207 0.4511,-2.3691 0.2464,-1.6484 0.6769,-2.9499 1.2227,-3.9648 0.5457,-1.015 1.2072,-1.743 1.918,-2.2422 0.7107,-0.4993 1.4714,-0.77 2.2128,-0.8711 0.5396,-0.074 1.035,0.024 1.5293,0.1074 -0.1165,-0.036 -0.2131,-0.039 -0.33,-0.078 -1.0636,-0.3553 -2.1461,-0.8193 -3.2246,-1.4649 -1.0786,-0.6455 -2.154,-1.4739 -3.2071,-2.5547 0.4507,-0.066 0.8404,-0.2189 1.1699,-0.4355 0.3296,-0.2167 0.5991,-0.4965 0.8106,-0.8164 0.423,-0.6398 0.6136,-1.4376 0.582,-2.2051 -0.032,-0.7675 -0.2858,-1.5048 -0.748,-2.0195 -0.2311,-0.2574 -0.5134,-0.4592 -0.8477,-0.5821 -0.3343,-0.1228 -0.7197,-0.1666 -1.1543,-0.1074 -0.5391,0.073 -0.947,0.2316 -1.2636,0.4258 -0.3167,0.1942 -0.5427,0.4251 -0.7188,0.6465 -0.3521,0.4427 -0.5041,0.8459 -0.7852,0.8359 -0.4109,-0.5724 -0.7616,-1.3281 -1.0605,-2.1797 -0.2989,-0.8515 -0.5468,-1.7989 -0.748,-2.7519 -0.4025,-1.906 -0.6242,-3.8383 -0.7227,-5.084 0.01,-0.017 0.012,-0.055 0.022,-0.072 -0.7942,-0.032 -1.4553,-0.01 -1.9356,0.088 -0.5224,0.1062 -0.8825,0.2816 -1.1269,0.5098 -0.2444,0.2282 -0.3738,0.5088 -0.4375,0.8262 -0.064,0.3173 -0.061,0.6712 -0.041,1.0449 0.039,0.7474 0.147,1.5734 -0.064,2.3496 -0.1057,0.3881 -0.291,0.7633 -0.6055,1.1094 -0.3144,0.346 -0.7584,0.6642 -1.3789,0.9355 -0.814,0.1862 -1.3963,0.1961 -1.8066,0.082 -0.4103,-0.114 -0.6482,-0.3518 -0.7754,-0.666 -0.2543,-0.6282 -0.063,-1.5564 0.092,-2.3847 0.077,-0.4142 0.1457,-0.8051 0.1445,-1.1192 0,-0.3141 -0.073,-0.552 -0.2734,-0.666 -0.2004,-0.114 -0.5286,-0.1042 -1.0488,0.082 -0.434,0.1554 -1.0945,0.5191 -1.8282,0.9473 -0.4748,2.3443 -0.9948,4.6998 -1.207,6.9824 -0.3064,3.2959 -0.3361,6.5186 -0.084,9.6426 0.2522,3.124 0.7878,6.148 1.6114,9.0488 0.8235,2.9009 1.9359,5.6783 3.3437,8.3047 0.7039,1.3132 1.4816,2.5893 2.334,3.8242 0.5414,0.7845 1.1657,1.5227 1.7676,2.2735 z"
       style="opacity:1;fill:#cccccc;fill-opacity:1;fill-rule:nonzero;stroke:#000000;stroke-width:1;stroke-linecap:round;stroke-linejoin:round;stroke-miterlimit:4;stroke-dasharray:none;stroke-opacity:1" />
    <path
       id="path4411"
       d="m -1348.9736,1351.6149 c -0.5863,-1.1498 -1.2108,-2.2721 -1.9199,-3.3261 -0.8184,-1.2167 -1.7133,-2.3708 -2.6758,-3.4668 -1.925,-2.1921 -4.117,-4.1512 -6.4941,-5.9063 0.017,0.5136 -0.068,1.018 -0.2383,1.5 -0.1708,0.482 -0.4284,0.9409 -0.7558,1.3613 -0.6549,0.8409 -1.5919,1.5284 -2.6875,1.9434 -0.5479,0.2075 -1.1364,0.3482 -1.7481,0.4043 -0.6116,0.056 -1.2461,0.028 -1.8906,-0.098 -0.6445,-0.1252 -1.2989,-0.347 -1.9453,-0.6836 -0.6465,-0.3365 -1.2849,-0.7874 -1.9024,-1.3652 -0.6174,-0.5778 -1.0919,-1.2361 -1.4355,-1.9414 -0.3436,-0.7053 -0.5561,-1.4565 -0.6524,-2.2188 -0.096,-0.7622 -0.076,-1.5367 0.049,-2.2851 0.1246,-0.7484 0.3528,-1.4708 0.6718,-2.1348 0.3191,-0.664 0.7278,-1.2684 1.2149,-1.7773 0.4871,-0.5089 1.0529,-0.922 1.6816,-1.2051 0.6287,-0.2831 1.3206,-0.4372 2.0645,-0.4238 0.7439,0.013 1.5385,0.1938 2.3711,0.5742 0.517,0.2612 0.8723,0.3696 1.0937,0.3574 0.2215,-0.012 0.3093,-0.1457 0.2949,-0.3691 -0.029,-0.4468 -0.4684,-1.2544 -1.082,-2.1739 -1.2272,-1.8389 -3.1472,-4.1261 -3.8457,-4.8769 -0.9123,-0.8805 -1.7965,-2.1322 -2.6055,-3.5527 -0.3847,-0.6757 -0.6782,-1.4402 -1.0234,-2.17 -0.7981,0.5844 -1.5381,1.2554 -2.4219,1.6973 -1.5466,0.7733 -3.2079,1.3195 -4.9257,1.6113 -1.7179,0.2918 -3.4927,0.3294 -5.2657,0.082 -1.7235,-0.3959 -3.6735,-0.6984 -5.6758,-1.3262 -0.4943,-0.083 -0.9897,-0.181 -1.5293,-0.1074 -0.7414,0.1011 -1.5021,0.3718 -2.2128,0.8711 -0.7108,0.4992 -1.3723,1.2272 -1.918,2.2422 -0.5458,1.0149 -0.9763,2.3164 -1.2227,3.9648 -0.2463,1.6484 -0.3477,2.3012 -0.4511,2.3691 -0.1034,0.068 -0.208,-0.4486 -0.461,-1.1425 -0.253,-0.694 -0.6543,-1.5639 -1.3496,-2.2012 -0.3476,-0.3187 -0.7682,-0.5795 -1.2812,-0.7305 -0.5131,-0.151 -1.119,-0.1932 -1.834,-0.074 -0.7151,0.119 -1.3199,0.3435 -1.8223,0.6504 -0.5024,0.3069 -0.9019,0.6966 -1.2051,1.1445 -0.3031,0.4479 -0.5096,0.9543 -0.6269,1.4961 -0.1173,0.5419 -0.145,1.1182 -0.09,1.707 0.1104,1.1778 0.5516,2.4044 1.2715,3.4883 0.36,0.542 0.791,1.048 1.2832,1.4961 0.4923,0.4481 1.0471,0.8374 1.6582,1.1446 -0.7504,1.1107 -1.451,2.2148 -2.0918,3.5722 -0.6142,1.3012 -1.1666,2.8859 -1.664,4.8809 0.3456,0.4311 0.648,0.887 1.0136,1.3066 1.0025,1.1504 2.0803,2.2551 3.2344,3.3145 1.1542,1.0593 2.384,2.0732 3.6914,3.0351 1.3075,0.9619 2.692,1.8725 4.1543,2.7305 1.4624,0.858 3.0023,1.6624 4.6211,2.4102 2.1182,0.9622 4.4682,1.6344 6.9512,2.0449 2.483,0.4105 5.0989,0.5586 7.75,0.4785 2.6511,-0.08 5.3384,-0.389 7.9609,-0.8984 2.6225,-0.5095 5.181,-1.2182 7.5781,-2.0958 2.3972,-0.8775 4.7689,-1.9269 7.0411,-3.1562 1.1643,-0.63 2.1993,-1.446 3.3007,-2.1719 z"
       style="opacity:1;fill:#b3b3b3;fill-opacity:1;fill-rule:nonzero;stroke:#000000;stroke-width:1;stroke-linecap:round;stroke-linejoin:round;stroke-miterlimit:4;stroke-dasharray:none;stroke-opacity:1" />
    <path
       id="path4409"
       d="m -1334.2763,1326.4098 c 0,-0.2175 0,-0.3153 0,-0.5332 -0.1016,-5.0457 -0.2594,-10.1065 -0.3515,-12.4433 -0.092,-2.3325 -0.3059,-4.6548 -0.7071,-6.9414 -0.4012,-2.2867 -0.9897,-4.5374 -1.8301,-6.7266 -0.2983,0.7629 -0.6927,1.3816 -1.1562,1.8692 -0.4635,0.4875 -0.9975,0.8435 -1.5742,1.0781 -0.5768,0.2345 -1.196,0.3478 -1.834,0.3515 -0.638,0 -1.294,-0.1017 -1.9414,-0.3066 -0.6474,-0.2049 -1.2859,-0.5092 -1.8906,-0.9004 -0.6048,-0.3912 -1.1753,-0.8704 -1.6856,-1.4258 -0.5102,-0.5554 -0.9604,-1.1874 -1.3242,-1.8847 -0.3638,-0.6974 -0.6413,-1.4603 -0.8067,-2.2774 -0.1653,-0.817 -0.202,-1.5898 -0.1328,-2.3144 0.069,-0.7246 0.2445,-1.3998 0.5039,-2.0196 0.2594,-0.6197 0.6027,-1.1849 1.0079,-1.6875 0.4051,-0.5025 0.8724,-0.9434 1.3789,-1.3164 1.0129,-0.746 2.1842,-1.2195 3.3359,-1.373 0.5759,-0.077 1.1455,-0.074 1.6895,0.016 0.5439,0.09 1.0617,0.2661 1.5293,0.5352 -0.8791,-1.7813 -1.8594,-3.5378 -2.9434,-5.2344 -1.084,-1.6966 -2.2718,-3.3329 -3.5645,-4.875 -1.2926,-1.5421 -2.6903,-2.989 -4.1953,-4.3067 -0.03,-0.026 -0.066,-0.044 -0.096,-0.07 -1.14,0.6961 -2.2754,1.3375 -3.4394,2.0703 -1.1351,0.9604 -2.9155,1.8905 -3.711,2.7071 -0.1988,0.2041 -0.3362,0.4012 -0.3867,0.5898 -0.051,0.1886 -0.014,0.3687 0.1348,0.5391 0.2974,0.3408 1.0439,0.6441 2.4433,0.8965 0.9843,0.3944 1.6896,0.9104 2.1602,1.498 0.4705,0.5877 0.7069,1.2468 0.7598,1.9278 0.053,0.6809 -0.079,1.3841 -0.3477,2.0585 -0.2687,0.6745 -0.6738,1.3206 -1.168,1.8887 -0.4941,0.5682 -1.0777,1.058 -1.7011,1.4199 -0.6235,0.362 -1.2867,0.5946 -1.9434,0.6504 -0.6567,0.056 -1.3065,-0.066 -1.9004,-0.416 -0.5938,-0.35 -1.1315,-0.9274 -1.5664,-1.7832 -0.3879,-0.7046 -0.6432,-1.5225 -0.8398,-2.3105 -0.1966,-0.7881 -0.3348,-1.5455 -0.4864,-2.1309 -0.1515,-0.5854 -0.3175,-0.9989 -0.5703,-1.0957 -0.2528,-0.097 -0.5934,0.1228 -1.0937,0.8008 -0.5003,0.678 -1.3777,1.319 -2.4043,1.9414 -0.8737,0.5296 -1.8562,1.0427 -2.8008,1.5586 0.355,0.3423 0.8071,0.5857 1.1191,0.9629 0.9588,1.1587 1.7012,2.474 2.1387,3.8945 0.6057,1.675 1.1435,3.4516 1.5352,5.2695 0.3917,1.818 0.6364,3.6763 0.6601,5.5137 0.024,1.8374 -0.1735,3.6533 -0.6719,5.3867 -0.2491,0.8668 -0.5738,1.7137 -0.9824,2.5313 -0.4085,0.8176 -0.901,1.6063 -1.4883,2.3594 -0.856,1.5636 -1.9437,2.9589 -3.2031,4.1562 -0.5398,0.5132 -1.2178,0.8351 -1.8164,1.2734 0.3452,0.7298 0.6387,1.4943 1.0234,2.17 0.809,1.4205 1.6932,2.6722 2.6055,3.5527 0.6985,0.7508 2.6185,3.038 3.8457,4.8769 0.6136,0.9195 1.0533,1.7271 1.082,2.1739 0.014,0.2234 -0.073,0.357 -0.2949,0.3691 -0.2214,0.012 -0.5767,-0.096 -1.0937,-0.3574 -0.8326,-0.3804 -1.6272,-0.5609 -2.3711,-0.5742 -0.7439,-0.013 -1.4358,0.1407 -2.0645,0.4238 -0.6287,0.2831 -1.1945,0.6962 -1.6816,1.2051 -0.4871,0.5089 -0.8958,1.1133 -1.2149,1.7773 -0.319,0.664 -0.5472,1.3864 -0.6718,2.1348 -0.1246,0.7484 -0.1452,1.5229 -0.049,2.2851 0.096,0.7623 0.3088,1.5135 0.6524,2.2188 0.3436,0.7053 0.8181,1.3636 1.4355,1.9414 0.6175,0.5778 1.2559,1.0287 1.9024,1.3652 0.6464,0.3366 1.3008,0.5584 1.9453,0.6836 0.6445,0.1253 1.279,0.1538 1.8906,0.098 0.6117,-0.056 1.2002,-0.1968 1.7481,-0.4043 1.0956,-0.415 2.0326,-1.1025 2.6875,-1.9434 0.3274,-0.4204 0.585,-0.8793 0.7558,-1.3613 0.1708,-0.482 0.2551,-0.9864 0.2383,-1.5 2.3771,1.7551 4.5691,3.7142 6.4941,5.9063 0.9625,1.096 1.8574,2.2501 2.6758,3.4668 0.7091,1.054 1.3336,2.1763 1.9199,3.3261 1.0481,-0.6907 2.1676,-1.2867 3.1407,-2.0664 1.9958,-1.5992 3.8146,-3.3878 5.3828,-5.375 0.7841,-0.9936 1.5055,-2.0369 2.1543,-3.1308 0.6488,-1.094 1.2261,-2.239 1.7207,-3.4356 0.54,-1.7802 0.9132,-3.2326 1.248,-4.9101 0.3349,-1.6776 0.6316,-3.5799 1.0176,-6.2559 l 0.033,-0.031 z"
       style="opacity:1;fill:#999999;fill-opacity:1;fill-rule:nonzero;stroke:#000000;stroke-width:1;stroke-linecap:round;stroke-linejoin:round;stroke-miterlimit:4;stroke-dasharray:none;stroke-opacity:1" />
    <path
       id="path4407"
       d="m -1311.8153,1256.7809 c -1.8918,0.077 -4.2086,0.4099 -6.2911,0.8418 -2.136,0.443 -4.0083,0.9735 -4.873,1.3848 0.8632,-0.2366 1.7251,-0.3254 2.5703,-0.2871 0.8452,0.038 1.6737,0.2035 2.4668,0.4766 0.7931,0.273 1.5511,0.6531 2.2578,1.121 0.7067,0.468 1.3611,1.0237 1.9473,1.6465 0.5861,0.6229 1.1037,1.3131 1.5351,2.0508 0.4315,0.7377 0.777,1.5233 1.0196,2.336 0.2425,0.8126 0.3829,1.6524 0.4023,2.5 0.019,0.8475 -0.082,1.7023 -0.3203,2.5449 -0.1028,0.8608 -0.3206,1.6393 -0.6348,2.334 -0.3141,0.6947 -0.7246,1.3058 -1.2129,1.8339 -0.4882,0.5282 -1.0526,0.9728 -1.6777,1.334 -0.6251,0.3612 -1.3104,0.6383 -2.0352,0.8321 -0.7247,0.1937 -1.4901,0.3042 -2.2773,0.33 -0.7872,0.026 -1.5958,-0.033 -2.4082,-0.1757 -0.8124,-0.1425 -1.6274,-0.3685 -2.4277,-0.6797 -0.8004,-0.3112 -1.5868,-0.7071 -2.3379,-1.1875 -0.7512,-0.4804 -1.3289,-1.0787 -1.7813,-1.752 -0.4524,-0.6733 -0.7777,-1.4203 -1.0234,-2.1973 -0.4914,-1.5539 -0.6619,-3.2265 -0.8789,-4.6601 -0.1085,-0.7168 -0.2283,-1.3748 -0.4063,-1.9277 -0.1779,-0.553 -0.4144,-1.0009 -0.7539,-1.3008 -0.3394,-0.2999 -0.7819,-0.4506 -1.375,-0.4082 -0.593,0.042 -1.3367,0.2782 -2.2754,0.7519 -3.7546,1.895 -7.0848,3.683 -10.2734,5.5 -2.0247,1.1538 -4.0012,2.3887 -5.9844,3.5996 0.03,0.026 0.066,0.044 0.096,0.07 1.505,1.3177 2.9027,2.7646 4.1953,4.3067 1.2927,1.5421 2.4805,3.1784 3.5645,4.875 1.084,1.6966 2.0643,3.4531 2.9434,5.2344 -0.4676,-0.2691 -0.9854,-0.4452 -1.5293,-0.5352 -0.544,-0.09 -1.1136,-0.092 -1.6895,-0.016 -1.1517,0.1535 -2.323,0.627 -3.3359,1.373 -0.5065,0.373 -0.9738,0.8139 -1.3789,1.3164 -0.4052,0.5026 -0.7485,1.0678 -1.0079,1.6875 -0.2594,0.6198 -0.4346,1.295 -0.5039,2.0196 -0.069,0.7246 -0.033,1.4974 0.1328,2.3144 0.1654,0.8171 0.4429,1.58 0.8067,2.2774 0.3638,0.6973 0.814,1.3293 1.3242,1.8847 0.5103,0.5554 1.0808,1.0346 1.6856,1.4258 0.6047,0.3912 1.2432,0.6955 1.8906,0.9004 0.6474,0.2049 1.3034,0.3104 1.9414,0.3066 0.638,0 1.2572,-0.117 1.834,-0.3515 0.5767,-0.2346 1.1107,-0.5906 1.5742,-1.0781 0.4635,-0.4876 0.8579,-1.1063 1.1562,-1.8692 0.8404,2.1892 1.4289,4.4399 1.8301,6.7266 0.4012,2.2866 0.6151,4.6089 0.7071,6.9414 0.092,2.3368 0.2499,7.3976 0.3515,12.4433 0,0.2179 0,0.3157 0,0.5332 l 3.6719,-3.5136 c 3.6105,-2.9958 7.4324,-5.7136 11.2715,-8.4102 3.839,-2.6966 7.695,-5.3721 11.375,-8.2832 6.053,-4.3353 12.3092,-8.3842 18.2383,-12.8926 -0.3062,-2.5908 -0.7201,-5.1863 -1.2832,-7.7422 -0.5632,-2.5558 -1.2752,-5.0719 -2.1739,-7.5 -0.8987,-2.428 -1.986,-4.7672 -3.2988,-6.9746 -1.3128,-2.2073 -2.8509,-4.282 -4.6563,-6.1757 -1.1715,-1.2847 -2.428,-2.4814 -3.8418,-3.6348 -1.4137,-1.1534 -2.9847,-2.2631 -4.791,-3.377 -0.5979,-0.3687 -1.3988,-0.7539 -2.0507,-1.125 z"
       style="opacity:1;fill:#f9f9f9;fill-opacity:1;fill-rule:nonzero;stroke:#000000;stroke-width:1;stroke-linecap:round;stroke-linejoin:round;stroke-miterlimit:4;stroke-dasharray:none;stroke-opacity:1" />
    <path
       id="path4405"
       d="m -1346.1708,1246.738 c -2.0793,-0.017 -4.195,0.049 -6.3262,0.1992 -2.1312,0.1501 -4.2796,0.3847 -6.4277,0.7051 -2.1481,0.3204 -4.2959,0.7249 -6.4258,1.2187 -2.1299,0.4938 -4.2417,1.0758 -6.3184,1.7461 -2.3685,1.0104 -4.6576,2.1814 -6.8613,3.4824 -0.4549,0.2686 -0.8629,0.6014 -1.3105,0.8809 -0.6007,0.9649 -1.5372,1.7736 -2.4903,2.9043 -0.49,0.5813 -0.9783,1.246 -1.4179,2.0625 -0.4397,0.8164 -0.8293,1.7833 -1.1211,2.9648 0,0 0.5706,-0.4322 1.2402,-0.6074 0.3348,-0.088 0.6939,-0.11 1.0195,0.018 0.3256,0.1275 0.6158,0.4046 0.8145,0.9199 0.2489,0.6458 0.2746,1.3139 0.1308,1.9356 -0.1437,0.6217 -0.4569,1.1977 -0.8828,1.6562 -0.4258,0.4586 -0.965,0.8007 -1.5625,0.957 -0.5974,0.1564 -1.2516,0.1268 -1.9101,-0.1582 -0.2041,0.9399 -0.2785,1.8869 -0.2813,2.836 0,0.9106 0.065,1.8219 0.1426,2.7304 0.018,-0.023 0.045,-0.042 0.062,-0.064 0.3905,-0.4955 0.8582,-0.8993 1.377,-1.2344 0.5187,-0.3351 1.0883,-0.6029 1.6855,-0.8281 1.1944,-0.4503 2.4954,-0.7302 3.7051,-1.043 1.2097,-0.3128 2.3274,-0.658 3.1543,-1.2363 0.4134,-0.2891 0.7549,-0.6373 0.998,-1.0684 0.2431,-0.431 0.3891,-0.9449 0.4121,-1.5683 0.046,-1.2468 0.3085,-2.3314 0.7774,-3.2696 0.4688,-0.9381 1.1438,-1.7297 2.0117,-2.3906 0.8679,-0.6609 1.9286,-1.1905 3.1719,-1.6055 1.2432,-0.4149 2.6688,-0.7155 4.2636,-0.916 0.7974,-0.1002 1.5677,-0.064 2.2891,0.08 0.7214,0.1446 1.3946,0.3979 1.998,0.7305 0.6035,0.3326 1.1364,0.745 1.5801,1.209 0.4438,0.464 0.7969,0.9788 1.0391,1.5175 0.2422,0.5387 0.3743,1.1015 0.373,1.6582 0,0.5568 -0.1354,1.1089 -0.4218,1.627 -0.2865,0.5181 -0.7263,1.0011 -1.3399,1.4238 -0.6136,0.4228 -1.4003,0.784 -2.3828,1.0547 -1.7477,0.3239 -2.3925,0.5472 -2.3437,0.7285 0.049,0.1814 0.7903,0.322 1.8183,0.4825 1.028,0.1604 2.3413,0.3404 3.5313,0.6015 1.19,0.2611 2.2582,0.6026 2.7929,1.086 1.687,1.0031 3.2629,2.1724 4.7422,3.4589 1.9832,-1.2109 3.9597,-2.4458 5.9844,-3.5996 3.1886,-1.817 6.5188,-3.605 10.2734,-5.5 0.9387,-0.4737 1.6824,-0.7096 2.2754,-0.7519 0.5931,-0.042 1.0356,0.1083 1.375,0.4082 0.3395,0.2999 0.576,0.7478 0.7539,1.3008 0.178,0.5529 0.2978,1.2109 0.4063,1.9277 0.217,1.4336 0.3875,3.1062 0.8789,4.6601 0.2457,0.777 0.571,1.524 1.0234,2.1973 0.4524,0.6733 1.0301,1.2716 1.7813,1.752 0.7511,0.4804 1.5375,0.8763 2.3379,1.1875 0.8003,0.3112 1.6153,0.5372 2.4277,0.6797 0.8124,0.1424 1.621,0.2016 2.4082,0.1757 0.7872,-0.026 1.5526,-0.1363 2.2773,-0.33 0.7248,-0.1938 1.4101,-0.4709 2.0352,-0.8321 0.6251,-0.3612 1.1895,-0.8058 1.6777,-1.334 0.4883,-0.5281 0.8988,-1.1392 1.2129,-1.8339 0.3142,-0.6947 0.532,-1.4732 0.6348,-2.334 0.2379,-0.8426 0.3397,-1.6974 0.3203,-2.5449 -0.019,-0.8476 -0.1598,-1.6874 -0.4023,-2.5 -0.2426,-0.8127 -0.5881,-1.5983 -1.0196,-2.336 -0.4314,-0.7377 -0.949,-1.4279 -1.5351,-2.0508 -0.5862,-0.6228 -1.2406,-1.1785 -1.9473,-1.6465 -0.7067,-0.4679 -1.4647,-0.848 -2.2578,-1.121 -0.7931,-0.2731 -1.6216,-0.4384 -2.4668,-0.4766 -0.8452,-0.038 -1.7071,0.051 -2.5703,0.2871 0.8647,-0.4113 2.737,-0.9418 4.873,-1.3848 2.0825,-0.4319 4.3993,-0.7644 6.2911,-0.8418 -1.3174,-0.7498 -2.5733,-1.4916 -4.1446,-2.2714 -2.3489,-1.1659 -5.0068,-2.3819 -8.0488,-3.6915 -1.521,-0.6547 -3.1482,-1.2324 -4.8613,-1.7324 -1.7132,-0.5 -3.5126,-0.9215 -5.3828,-1.2636 -1.8703,-0.3422 -3.8105,-0.604 -5.8028,-0.7852 -1.9923,-0.1812 -4.0359,-0.2817 -6.1152,-0.2988 z"
       style="opacity:1;fill:#ececec;fill-opacity:1;fill-rule:nonzero;stroke:#000000;stroke-width:1;stroke-linecap:round;stroke-linejoin:round;stroke-miterlimit:4;stroke-dasharray:none;stroke-opacity:1" />
  </g>
</svg>
